<?xml version="1.0" encoding="UTF-8" standalone="no"?><svg xmlns="http://www.w3.org/2000/svg" xmlns:xlink="http://www.w3.org/1999/xlink" clip-rule="evenodd" stroke-miterlimit="10" viewBox="0 0 1024 768"><desc>SVG generated by Keynote</desc><defs></defs><g transform="matrix(1.00, 0.00, -0.00, -1.00, 0.0, 768.0)"><path d="M 0.0 768.0 L 1024.0 768.0 L 1024.0 0.0 L 0.0 0.0 Z M 0.0 768.0 " fill="#FEFFFF"></path><text xml:space="preserve" font-family="Helvetica-Light,Helvetica" font-size="47.0" fill="#000000" transform="matrix(1.00, 0.00, -0.00, -1.00, 76.6, 466.3)">I</text><text xml:space="preserve" font-family="Helvetica-Light,Helvetica" font-size="47.0" fill="#000000" transform="matrix(1.00, 0.00, -0.00, -1.00, 89.7, 466.3)">s</text><text xml:space="preserve" font-family="Helvetica-Light,Helvetica" font-size="47.0" fill="#000000" transform="matrix(1.00, 0.00, -0.00, -1.00, 113.2, 466.3)"> </text><text xml:space="preserve" font-family="Helvetica-Light,Helvetica" font-size="47.0" fill="#000000" transform="matrix(1.00, 0.00, -0.00, -1.00, 126.3, 466.3)">t</text><text xml:space="preserve" font-family="Helvetica-Light,Helvetica" font-size="47.0" fill="#000000" transform="matrix(1.00, 0.00, -0.00, -1.00, 139.3, 466.3)">h</text><text xml:space="preserve" font-family="Helvetica-Light,Helvetica" font-size="47.0" fill="#000000" transform="matrix(1.00, 0.00, -0.00, -1.00, 165.5, 466.3)">e</text><text xml:space="preserve" font-family="Helvetica-Light,Helvetica" font-size="47.0" fill="#000000" transform="matrix(1.00, 0.00, -0.00, -1.00, 191.6, 466.3)"> </text><text xml:space="preserve" font-family="Helvetica-Light,Helvetica" font-size="47.0" fill="#000000" transform="matrix(1.00, 0.00, -0.00, -1.00, 204.7, 466.3)">c</text><text xml:space="preserve" font-family="Helvetica-Light,Helvetica" font-size="47.0" fill="#000000" transform="matrix(1.00, 0.00, -0.00, -1.00, 230.8, 466.3)">l</text><text xml:space="preserve" font-family="Helvetica-Light,Helvetica" font-size="47.0" fill="#000000" transform="matrix(1.00, 0.00, -0.00, -1.00, 241.2, 466.3)">i</text><text xml:space="preserve" font-family="Helvetica-Light,Helvetica" font-size="47.0" fill="#000000" transform="matrix(1.00, 0.00, -0.00, -1.00, 251.7, 466.3)">e</text><text xml:space="preserve" font-family="Helvetica-Light,Helvetica" font-size="47.0" fill="#000000" transform="matrix(1.00, 0.00, -0.00, -1.00, 277.8, 466.3)">n</text><text xml:space="preserve" font-family="Helvetica-Light,Helvetica" font-size="47.0" fill="#000000" transform="matrix(1.00, 0.00, -0.00, -1.00, 303.9, 466.3)">t</text><text xml:space="preserve" font-family="Helvetica-Light,Helvetica" font-size="47.0" fill="#000000" transform="matrix(1.00, 0.00, -0.00, -1.00, 317.0, 466.3)"> </text><text xml:space="preserve" font-family="Helvetica-Light,Helvetica" font-size="47.0" fill="#000000" transform="matrix(1.00, 0.00, -0.00, -1.00, 330.1, 466.3)">c</text><text xml:space="preserve" font-family="Helvetica-Light,Helvetica" font-size="47.0" fill="#000000" transform="matrix(1.00, 0.00, -0.00, -1.00, 356.2, 466.3)">u</text><text xml:space="preserve" font-family="Helvetica-Light,Helvetica" font-size="47.0" fill="#000000" transform="matrix(1.00, 0.00, -0.00, -1.00, 382.3, 466.3)">r</text><text xml:space="preserve" font-family="Helvetica-Light,Helvetica" font-size="47.0" fill="#000000" transform="matrix(1.00, 0.00, -0.00, -1.00, 398.0, 466.3)">r</text><text xml:space="preserve" font-family="Helvetica-Light,Helvetica" font-size="47.0" fill="#000000" transform="matrix(1.00, 0.00, -0.00, -1.00, 412.8, 466.3)">e</text><text xml:space="preserve" font-family="Helvetica-Light,Helvetica" font-size="47.0" fill="#000000" transform="matrix(1.00, 0.00, -0.00, -1.00, 438.9, 466.3)">n</text><text xml:space="preserve" font-family="Helvetica-Light,Helvetica" font-size="47.0" fill="#000000" transform="matrix(1.00, 0.00, -0.00, -1.00, 465.0, 466.3)">t</text><text xml:space="preserve" font-family="Helvetica-Light,Helvetica" font-size="47.0" fill="#000000" transform="matrix(1.00, 0.00, -0.00, -1.00, 478.1, 466.3)">l</text><text xml:space="preserve" font-family="Helvetica-Light,Helvetica" font-size="47.0" fill="#000000" transform="matrix(1.00, 0.00, -0.00, -1.00, 488.5, 466.3)">y</text><text xml:space="preserve" font-family="Helvetica-Light,Helvetica" font-size="47.0" fill="#000000" transform="matrix(1.00, 0.00, -0.00, -1.00, 512.0, 466.3)"> </text><text xml:space="preserve" font-family="Helvetica-Light,Helvetica" font-size="47.0" fill="#000000" transform="matrix(1.00, 0.00, -0.00, -1.00, 525.1, 466.3)">r</text><text xml:space="preserve" font-family="Helvetica-Light,Helvetica" font-size="47.0" fill="#000000" transform="matrix(1.00, 0.00, -0.00, -1.00, 539.9, 466.3)">e</text><text xml:space="preserve" font-family="Helvetica-Light,Helvetica" font-size="47.0" fill="#000000" transform="matrix(1.00, 0.00, -0.00, -1.00, 566.0, 466.3)">s</text><text xml:space="preserve" font-family="Helvetica-Light,Helvetica" font-size="47.0" fill="#000000" transform="matrix(1.00, 0.00, -0.00, -1.00, 589.5, 466.3)">i</text><text xml:space="preserve" font-family="Helvetica-Light,Helvetica" font-size="47.0" fill="#000000" transform="matrix(1.00, 0.00, -0.00, -1.00, 600.0, 466.3)">d</text><text xml:space="preserve" font-family="Helvetica-Light,Helvetica" font-size="47.0" fill="#000000" transform="matrix(1.00, 0.00, -0.00, -1.00, 628.7, 466.3)">i</text><text xml:space="preserve" font-family="Helvetica-Light,Helvetica" font-size="47.0" fill="#000000" transform="matrix(1.00, 0.00, -0.00, -1.00, 639.1, 466.3)">n</text><text xml:space="preserve" font-family="Helvetica-Light,Helvetica" font-size="47.0" fill="#000000" transform="matrix(1.00, 0.00, -0.00, -1.00, 665.3, 466.3)">g</text><text xml:space="preserve" font-family="Helvetica-Light,Helvetica" font-size="47.0" fill="#000000" transform="matrix(1.00, 0.00, -0.00, -1.00, 694.0, 466.3)"> </text><text xml:space="preserve" font-family="Helvetica-Light,Helvetica" font-size="47.0" fill="#000000" transform="matrix(1.00, 0.00, -0.00, -1.00, 707.0, 466.3)">i</text><text xml:space="preserve" font-family="Helvetica-Light,Helvetica" font-size="47.0" fill="#000000" transform="matrix(1.00, 0.00, -0.00, -1.00, 717.5, 466.3)">n</text><text xml:space="preserve" font-family="Helvetica-Light,Helvetica" font-size="47.0" fill="#000000" transform="matrix(1.00, 0.00, -0.00, -1.00, 743.6, 466.3)"> </text><text xml:space="preserve" font-family="Helvetica-Light,Helvetica" font-size="47.0" fill="#000000" transform="matrix(1.00, 0.00, -0.00, -1.00, 756.7, 466.3)">t</text><text xml:space="preserve" font-family="Helvetica-Light,Helvetica" font-size="47.0" fill="#000000" transform="matrix(1.00, 0.00, -0.00, -1.00, 769.7, 466.3)">h</text><text xml:space="preserve" font-family="Helvetica-Light,Helvetica" font-size="47.0" fill="#000000" transform="matrix(1.00, 0.00, -0.00, -1.00, 795.9, 466.3)">e</text><text xml:space="preserve" font-family="Helvetica-Light,Helvetica" font-size="47.0" fill="#000000" transform="matrix(1.00, 0.00, -0.00, -1.00, 822.0, 466.3)"> </text><text xml:space="preserve" font-family="Helvetica-Light,Helvetica" font-size="47.0" fill="#000000" transform="matrix(1.00, 0.00, -0.00, -1.00, 835.1, 466.3)">U</text><text xml:space="preserve" font-family="Helvetica-Light,Helvetica" font-size="47.0" fill="#000000" transform="matrix(1.00, 0.00, -0.00, -1.00, 869.0, 466.3)">.</text><text xml:space="preserve" font-family="Helvetica-Light,Helvetica" font-size="47.0" fill="#000000" transform="matrix(1.00, 0.00, -0.00, -1.00, 882.1, 466.3)">S</text><text xml:space="preserve" font-family="Helvetica-Light,Helvetica" font-size="47.0" fill="#000000" transform="matrix(1.00, 0.00, -0.00, -1.00, 910.8, 466.3)">.</text><text xml:space="preserve" font-family="Helvetica-Light,Helvetica" font-size="47.0" fill="#000000" transform="matrix(1.00, 0.00, -0.00, -1.00, 923.9, 466.3)">?</text><path d="M 290.5 361.5 L 378.5 361.5 L 378.5 291.5 L 290.5 291.5 Z M 290.1 362.0 " fill="#72FA78"></path><path d="M 0.4 0.5 L 88.4 0.5 L 88.4 70.5 L 0.4 70.5 Z M 0.0 0.0 " fill="none" stroke="#000000" stroke-width="3.00" transform="matrix(1.00, 0.00, 0.00, -1.00, 290.1, 362.0)"></path><g><clipPath id="clip0x608000eb88a0"><path d="M 283.4 285.2 L 385.4 285.2 L 385.4 368.8 L 283.4 368.8 Z M 283.4 285.2 "></path></clipPath><g clip-path="url(#clip0x608000eb88a0)"><text xml:space="preserve" font-family="Helvetica-Light,Helvetica" font-size="49.0" fill="#000000" transform="matrix(1.00, 0.00, -0.00, -1.00, 295.6, 308.8)">Y</text><text xml:space="preserve" font-family="Helvetica-Light,Helvetica" font-size="49.0" fill="#000000" transform="matrix(1.00, 0.00, -0.00, -1.00, 321.1, 308.8)">e</text><text xml:space="preserve" font-family="Helvetica-Light,Helvetica" font-size="49.0" fill="#000000" transform="matrix(1.00, 0.00, -0.00, -1.00, 348.3, 308.8)">s</text></g></g><path d="M 675.5 361.5 L 764.5 361.5 L 764.5 291.5 L 675.5 291.5 Z M 675.5 362.0 " fill="#FF7D78"></path><path d="M 0.0 0.5 L 89.0 0.5 L 89.0 70.5 L 0.0 70.5 Z M 0.0 0.0 " fill="none" stroke="#000000" stroke-width="3.00" transform="matrix(1.00, 0.00, 0.00, -1.00, 675.5, 362.0)"></path><g><clipPath id="clip0x6080010bcaa0"><path d="M 668.7 285.2 L 770.8 285.2 L 770.8 368.8 L 668.7 368.8 Z M 668.7 285.2 "></path></clipPath><g clip-path="url(#clip0x6080010bcaa0)"><text xml:space="preserve" font-family="Helvetica-Light,Helvetica" font-size="49.0" fill="#000000" transform="matrix(1.00, 0.00, -0.00, -1.00, 688.5, 308.8)">N</text><text xml:space="preserve" font-family="Helvetica-Light,Helvetica" font-size="49.0" fill="#000000" transform="matrix(1.00, 0.00, -0.00, -1.00, 723.8, 308.8)">o</text></g></g><text xml:space="preserve" font-family="Helvetica-Light,Helvetica" font-size="36.0" fill="#000000" transform="matrix(1.00, 0.00, -0.00, -1.00, 437.7, 94.8)">S</text><text xml:space="preserve" font-family="Helvetica-Light,Helvetica" font-size="36.0" fill="#000000" transform="matrix(1.00, 0.00, -0.00, -1.00, 459.7, 94.8)">t</text><text xml:space="preserve" font-family="Helvetica-Light,Helvetica" font-size="36.0" fill="#000000" transform="matrix(1.00, 0.00, -0.00, -1.00, 469.7, 94.8)">a</text><text xml:space="preserve" font-family="Helvetica-Light,Helvetica" font-size="36.0" fill="#000000" transform="matrix(1.00, 0.00, -0.00, -1.00, 489.7, 94.8)">r</text><text xml:space="preserve" font-family="Helvetica-Light,Helvetica" font-size="36.0" fill="#000000" transform="matrix(1.00, 0.00, -0.00, -1.00, 502.3, 94.8)">t</text><text xml:space="preserve" font-family="Helvetica-Light,Helvetica" font-size="36.0" fill="#000000" transform="matrix(1.00, 0.00, -0.00, -1.00, 512.3, 94.8)"> </text><text xml:space="preserve" font-family="Helvetica-Light,Helvetica" font-size="36.0" fill="#000000" transform="matrix(1.00, 0.00, -0.00, -1.00, 522.3, 94.8)">O</text><text xml:space="preserve" font-family="Helvetica-Light,Helvetica" font-size="36.0" fill="#000000" transform="matrix(1.00, 0.00, -0.00, -1.00, 550.3, 94.8)">v</text><text xml:space="preserve" font-family="Helvetica-Light,Helvetica" font-size="36.0" fill="#000000" transform="matrix(1.00, 0.00, -0.00, -1.00, 568.3, 94.8)">e</text><text xml:space="preserve" font-family="Helvetica-Light,Helvetica" font-size="36.0" fill="#000000" transform="matrix(1.00, 0.00, -0.00, -1.00, 588.4, 94.8)">r</text></g></svg>