<?xml version="1.0" encoding="UTF-8" standalone="no"?><svg xmlns="http://www.w3.org/2000/svg" xmlns:xlink="http://www.w3.org/1999/xlink" clip-rule="evenodd" stroke-miterlimit="10" viewBox="0 0 1024 768"><desc>SVG generated by Keynote</desc><defs></defs><g transform="matrix(1.00, 0.00, -0.00, -1.00, 0.0, 768.0)"><path d="M 0.0 768.0 L 1024.0 768.0 L 1024.0 0.0 L 0.0 0.0 Z M 0.0 768.0 " fill="#FEFFFF"></path><text xml:space="preserve" font-family="Helvetica-Light,Helvetica" font-size="47.0" fill="#000000" transform="matrix(1.00, 0.00, -0.00, -1.00, 64.4, 494.3)">D</text><text xml:space="preserve" font-family="Helvetica-Light,Helvetica" font-size="47.0" fill="#000000" transform="matrix(1.00, 0.00, -0.00, -1.00, 98.4, 494.3)">o</text><text xml:space="preserve" font-family="Helvetica-Light,Helvetica" font-size="47.0" fill="#000000" transform="matrix(1.00, 0.00, -0.00, -1.00, 124.5, 494.3)">e</text><text xml:space="preserve" font-family="Helvetica-Light,Helvetica" font-size="47.0" fill="#000000" transform="matrix(1.00, 0.00, -0.00, -1.00, 150.6, 494.3)">s</text><text xml:space="preserve" font-family="Helvetica-Light,Helvetica" font-size="47.0" fill="#000000" transform="matrix(1.00, 0.00, -0.00, -1.00, 174.1, 494.3)"> </text><text xml:space="preserve" font-family="Helvetica-Light,Helvetica" font-size="47.0" fill="#000000" transform="matrix(1.00, 0.00, -0.00, -1.00, 187.2, 494.3)">t</text><text xml:space="preserve" font-family="Helvetica-Light,Helvetica" font-size="47.0" fill="#000000" transform="matrix(1.00, 0.00, -0.00, -1.00, 200.2, 494.3)">h</text><text xml:space="preserve" font-family="Helvetica-Light,Helvetica" font-size="47.0" fill="#000000" transform="matrix(1.00, 0.00, -0.00, -1.00, 226.4, 494.3)">e</text><text xml:space="preserve" font-family="Helvetica-Light,Helvetica" font-size="47.0" fill="#000000" transform="matrix(1.00, 0.00, -0.00, -1.00, 252.5, 494.3)"> </text><text xml:space="preserve" font-family="Helvetica-Light,Helvetica" font-size="47.0" fill="#000000" transform="matrix(1.00, 0.00, -0.00, -1.00, 265.6, 494.3)">c</text><text xml:space="preserve" font-family="Helvetica-Light,Helvetica" font-size="47.0" fill="#000000" transform="matrix(1.00, 0.00, -0.00, -1.00, 291.7, 494.3)">l</text><text xml:space="preserve" font-family="Helvetica-Light,Helvetica" font-size="47.0" fill="#000000" transform="matrix(1.00, 0.00, -0.00, -1.00, 302.1, 494.3)">i</text><text xml:space="preserve" font-family="Helvetica-Light,Helvetica" font-size="47.0" fill="#000000" transform="matrix(1.00, 0.00, -0.00, -1.00, 312.6, 494.3)">e</text><text xml:space="preserve" font-family="Helvetica-Light,Helvetica" font-size="47.0" fill="#000000" transform="matrix(1.00, 0.00, -0.00, -1.00, 338.7, 494.3)">n</text><text xml:space="preserve" font-family="Helvetica-Light,Helvetica" font-size="47.0" fill="#000000" transform="matrix(1.00, 0.00, -0.00, -1.00, 364.8, 494.3)">t</text><text xml:space="preserve" font-family="Helvetica-Light,Helvetica" font-size="47.0" fill="#000000" transform="matrix(1.00, 0.00, -0.00, -1.00, 377.9, 494.3)"> </text><text xml:space="preserve" font-family="Helvetica-Light,Helvetica" font-size="47.0" fill="#000000" transform="matrix(1.00, 0.00, -0.00, -1.00, 391.0, 494.3)">c</text><text xml:space="preserve" font-family="Helvetica-Light,Helvetica" font-size="47.0" fill="#000000" transform="matrix(1.00, 0.00, -0.00, -1.00, 417.1, 494.3)">u</text><text xml:space="preserve" font-family="Helvetica-Light,Helvetica" font-size="47.0" fill="#000000" transform="matrix(1.00, 0.00, -0.00, -1.00, 443.2, 494.3)">r</text><text xml:space="preserve" font-family="Helvetica-Light,Helvetica" font-size="47.0" fill="#000000" transform="matrix(1.00, 0.00, -0.00, -1.00, 458.9, 494.3)">r</text><text xml:space="preserve" font-family="Helvetica-Light,Helvetica" font-size="47.0" fill="#000000" transform="matrix(1.00, 0.00, -0.00, -1.00, 473.7, 494.3)">e</text><text xml:space="preserve" font-family="Helvetica-Light,Helvetica" font-size="47.0" fill="#000000" transform="matrix(1.00, 0.00, -0.00, -1.00, 499.8, 494.3)">n</text><text xml:space="preserve" font-family="Helvetica-Light,Helvetica" font-size="47.0" fill="#000000" transform="matrix(1.00, 0.00, -0.00, -1.00, 526.0, 494.3)">t</text><text xml:space="preserve" font-family="Helvetica-Light,Helvetica" font-size="47.0" fill="#000000" transform="matrix(1.00, 0.00, -0.00, -1.00, 539.0, 494.3)">l</text><text xml:space="preserve" font-family="Helvetica-Light,Helvetica" font-size="47.0" fill="#000000" transform="matrix(1.00, 0.00, -0.00, -1.00, 549.5, 494.3)">y</text><text xml:space="preserve" font-family="Helvetica-Light,Helvetica" font-size="47.0" fill="#000000" transform="matrix(1.00, 0.00, -0.00, -1.00, 573.0, 494.3)"> </text><text xml:space="preserve" font-family="Helvetica-Light,Helvetica" font-size="47.0" fill="#000000" transform="matrix(1.00, 0.00, -0.00, -1.00, 586.0, 494.3)">h</text><text xml:space="preserve" font-family="Helvetica-Light,Helvetica" font-size="47.0" fill="#000000" transform="matrix(1.00, 0.00, -0.00, -1.00, 612.2, 494.3)">a</text><text xml:space="preserve" font-family="Helvetica-Light,Helvetica" font-size="47.0" fill="#000000" transform="matrix(1.00, 0.00, -0.00, -1.00, 638.3, 494.3)">v</text><text xml:space="preserve" font-family="Helvetica-Light,Helvetica" font-size="47.0" fill="#000000" transform="matrix(1.00, 0.00, -0.00, -1.00, 661.8, 494.3)">e</text><text xml:space="preserve" font-family="Helvetica-Light,Helvetica" font-size="47.0" fill="#000000" transform="matrix(1.00, 0.00, -0.00, -1.00, 687.9, 494.3)"> </text><text xml:space="preserve" font-family="Helvetica-Light,Helvetica" font-size="47.0" fill="#000000" transform="matrix(1.00, 0.00, -0.00, -1.00, 701.0, 494.3)">a</text><text xml:space="preserve" font-family="Helvetica-Light,Helvetica" font-size="47.0" fill="#000000" transform="matrix(1.00, 0.00, -0.00, -1.00, 727.1, 494.3)"> </text><text xml:space="preserve" font-family="Helvetica-Bold,Helvetica" font-weight="bold" font-size="47.0" fill="#000000" transform="matrix(1.00, 0.00, -0.00, -1.00, 740.2, 494.3)">s</text><text xml:space="preserve" font-family="Helvetica-Bold,Helvetica" font-weight="bold" font-size="47.0" fill="#000000" transform="matrix(1.00, 0.00, -0.00, -1.00, 766.3, 494.3)">p</text><text xml:space="preserve" font-family="Helvetica-Bold,Helvetica" font-weight="bold" font-size="47.0" fill="#000000" transform="matrix(1.00, 0.00, -0.00, -1.00, 795.1, 494.3)">o</text><text xml:space="preserve" font-family="Helvetica-Bold,Helvetica" font-weight="bold" font-size="47.0" fill="#000000" transform="matrix(1.00, 0.00, -0.00, -1.00, 823.8, 494.3)">u</text><text xml:space="preserve" font-family="Helvetica-Bold,Helvetica" font-weight="bold" font-size="47.0" fill="#000000" transform="matrix(1.00, 0.00, -0.00, -1.00, 852.5, 494.3)">s</text><text xml:space="preserve" font-family="Helvetica-Bold,Helvetica" font-weight="bold" font-size="47.0" fill="#000000" transform="matrix(1.00, 0.00, -0.00, -1.00, 878.6, 494.3)">e</text><text xml:space="preserve" font-family="Helvetica-Light,Helvetica" font-size="47.0" fill="#000000" transform="matrix(1.00, 0.00, -0.00, -1.00, 904.7, 494.3)"> </text><text xml:space="preserve" font-family="Helvetica-Light,Helvetica" font-size="47.0" fill="#000000" transform="matrix(1.00, 0.00, -0.00, -1.00, 917.8, 494.3)">o</text><text xml:space="preserve" font-family="Helvetica-Light,Helvetica" font-size="47.0" fill="#000000" transform="matrix(1.00, 0.00, -0.00, -1.00, 943.9, 494.3)">r</text><text xml:space="preserve" font-family="Helvetica-Light,Helvetica" font-size="47.0" fill="#000000" transform="matrix(1.00, 0.00, -0.00, -1.00, 959.6, 494.3)"> </text><text xml:space="preserve" font-family="Helvetica-Bold,Helvetica" font-weight="bold" font-size="47.0" fill="#000000" transform="matrix(1.00, 0.00, -0.00, -1.00, 163.3, 438.3)">d</text><text xml:space="preserve" font-family="Helvetica-Bold,Helvetica" font-weight="bold" font-size="47.0" fill="#000000" transform="matrix(1.00, 0.00, -0.00, -1.00, 192.0, 438.3)">e</text><text xml:space="preserve" font-family="Helvetica-Bold,Helvetica" font-weight="bold" font-size="47.0" fill="#000000" transform="matrix(1.00, 0.00, -0.00, -1.00, 218.2, 438.3)">p</text><text xml:space="preserve" font-family="Helvetica-Bold,Helvetica" font-weight="bold" font-size="47.0" fill="#000000" transform="matrix(1.00, 0.00, -0.00, -1.00, 246.9, 438.3)">e</text><text xml:space="preserve" font-family="Helvetica-Bold,Helvetica" font-weight="bold" font-size="47.0" fill="#000000" transform="matrix(1.00, 0.00, -0.00, -1.00, 273.0, 438.3)">n</text><text xml:space="preserve" font-family="Helvetica-Bold,Helvetica" font-weight="bold" font-size="47.0" fill="#000000" transform="matrix(1.00, 0.00, -0.00, -1.00, 301.7, 438.3)">d</text><text xml:space="preserve" font-family="Helvetica-Bold,Helvetica" font-weight="bold" font-size="47.0" fill="#000000" transform="matrix(1.00, 0.00, -0.00, -1.00, 330.4, 438.3)">e</text><text xml:space="preserve" font-family="Helvetica-Bold,Helvetica" font-weight="bold" font-size="47.0" fill="#000000" transform="matrix(1.00, 0.00, -0.00, -1.00, 356.5, 438.3)">n</text><text xml:space="preserve" font-family="Helvetica-Bold,Helvetica" font-weight="bold" font-size="47.0" fill="#000000" transform="matrix(1.00, 0.00, -0.00, -1.00, 385.2, 438.3)">t</text><text xml:space="preserve" font-family="Helvetica-Light,Helvetica" font-size="47.0" fill="#000000" transform="matrix(1.00, 0.00, -0.00, -1.00, 401.0, 438.3)"> </text><text xml:space="preserve" font-family="Helvetica-Light,Helvetica" font-size="47.0" fill="#000000" transform="matrix(1.00, 0.00, -0.00, -1.00, 414.0, 438.3)">w</text><text xml:space="preserve" font-family="Helvetica-Light,Helvetica" font-size="47.0" fill="#000000" transform="matrix(1.00, 0.00, -0.00, -1.00, 448.0, 438.3)">h</text><text xml:space="preserve" font-family="Helvetica-Light,Helvetica" font-size="47.0" fill="#000000" transform="matrix(1.00, 0.00, -0.00, -1.00, 474.1, 438.3)">o</text><text xml:space="preserve" font-family="Helvetica-Light,Helvetica" font-size="47.0" fill="#000000" transform="matrix(1.00, 0.00, -0.00, -1.00, 500.2, 438.3)"> </text><text xml:space="preserve" font-family="Helvetica-Light,Helvetica" font-size="47.0" fill="#000000" transform="matrix(1.00, 0.00, -0.00, -1.00, 513.3, 438.3)">i</text><text xml:space="preserve" font-family="Helvetica-Light,Helvetica" font-size="47.0" fill="#000000" transform="matrix(1.00, 0.00, -0.00, -1.00, 523.7, 438.3)">s</text><text xml:space="preserve" font-family="Helvetica-Light,Helvetica" font-size="47.0" fill="#000000" transform="matrix(1.00, 0.00, -0.00, -1.00, 547.2, 438.3)"> </text><text xml:space="preserve" font-family="Helvetica-Light,Helvetica" font-size="47.0" fill="#000000" transform="matrix(1.00, 0.00, -0.00, -1.00, 560.3, 438.3)">a</text><text xml:space="preserve" font-family="Helvetica-Light,Helvetica" font-size="47.0" fill="#000000" transform="matrix(1.00, 0.00, -0.00, -1.00, 586.4, 438.3)"> </text><text xml:space="preserve" font-family="Helvetica-Light,Helvetica" font-size="47.0" fill="#000000" transform="matrix(1.00, 0.00, -0.00, -1.00, 599.5, 438.3)">U</text><text xml:space="preserve" font-family="Helvetica-Light,Helvetica" font-size="47.0" fill="#000000" transform="matrix(1.00, 0.00, -0.00, -1.00, 633.4, 438.3)">.</text><text xml:space="preserve" font-family="Helvetica-Light,Helvetica" font-size="47.0" fill="#000000" transform="matrix(1.00, 0.00, -0.00, -1.00, 646.5, 438.3)">S</text><text xml:space="preserve" font-family="Helvetica-Light,Helvetica" font-size="47.0" fill="#000000" transform="matrix(1.00, 0.00, -0.00, -1.00, 675.2, 438.3)">.</text><text xml:space="preserve" font-family="Helvetica-Light,Helvetica" font-size="47.0" fill="#000000" transform="matrix(1.00, 0.00, -0.00, -1.00, 688.3, 438.3)"> </text><text xml:space="preserve" font-family="Helvetica-Light,Helvetica" font-size="47.0" fill="#000000" transform="matrix(1.00, 0.00, -0.00, -1.00, 701.3, 438.3)">c</text><text xml:space="preserve" font-family="Helvetica-Light,Helvetica" font-size="47.0" fill="#000000" transform="matrix(1.00, 0.00, -0.00, -1.00, 727.5, 438.3)">i</text><text xml:space="preserve" font-family="Helvetica-Light,Helvetica" font-size="47.0" fill="#000000" transform="matrix(1.00, 0.00, -0.00, -1.00, 737.9, 438.3)">t</text><text xml:space="preserve" font-family="Helvetica-Light,Helvetica" font-size="47.0" fill="#000000" transform="matrix(1.00, 0.00, -0.00, -1.00, 751.0, 438.3)">i</text><text xml:space="preserve" font-family="Helvetica-Light,Helvetica" font-size="47.0" fill="#000000" transform="matrix(1.00, 0.00, -0.00, -1.00, 761.4, 438.3)">z</text><text xml:space="preserve" font-family="Helvetica-Light,Helvetica" font-size="47.0" fill="#000000" transform="matrix(1.00, 0.00, -0.00, -1.00, 784.9, 438.3)">e</text><text xml:space="preserve" font-family="Helvetica-Light,Helvetica" font-size="47.0" fill="#000000" transform="matrix(1.00, 0.00, -0.00, -1.00, 811.0, 438.3)">n</text><text xml:space="preserve" font-family="Helvetica-Light,Helvetica" font-size="47.0" fill="#000000" transform="matrix(1.00, 0.00, -0.00, -1.00, 837.2, 438.3)">?</text><text xml:space="preserve" font-family="Helvetica-Light,Helvetica" font-size="47.0" fill="#000000" transform="matrix(1.00, 0.00, -0.00, -1.00, 860.7, 438.3)"> </text><path d="M 290.5 361.5 L 378.5 361.5 L 378.5 291.5 L 290.5 291.5 Z M 290.1 362.0 " fill="#72FA78"></path><path d="M 0.4 0.5 L 88.4 0.5 L 88.4 70.5 L 0.4 70.5 Z M 0.0 0.0 " fill="none" stroke="#000000" stroke-width="3.00" transform="matrix(1.00, 0.00, 0.00, -1.00, 290.1, 362.0)"></path><g><clipPath id="clip0x600001aad1a0"><path d="M 283.4 285.2 L 385.4 285.2 L 385.4 368.8 L 283.4 368.8 Z M 283.4 285.2 "></path></clipPath><g clip-path="url(#clip0x600001aad1a0)"><text xml:space="preserve" font-family="Helvetica-Light,Helvetica" font-size="49.0" fill="#000000" transform="matrix(1.00, 0.00, -0.00, -1.00, 295.6, 308.8)">Y</text><text xml:space="preserve" font-family="Helvetica-Light,Helvetica" font-size="49.0" fill="#000000" transform="matrix(1.00, 0.00, -0.00, -1.00, 321.1, 308.8)">e</text><text xml:space="preserve" font-family="Helvetica-Light,Helvetica" font-size="49.0" fill="#000000" transform="matrix(1.00, 0.00, -0.00, -1.00, 348.3, 308.8)">s</text></g></g><path d="M 675.5 361.5 L 764.5 361.5 L 764.5 291.5 L 675.5 291.5 Z M 675.5 362.0 " fill="#FF7D78"></path><path d="M 0.0 0.5 L 89.0 0.5 L 89.0 70.5 L 0.0 70.5 Z M 0.0 0.0 " fill="none" stroke="#000000" stroke-width="3.00" transform="matrix(1.00, 0.00, 0.00, -1.00, 675.5, 362.0)"></path><g><clipPath id="clip0x600001aad620"><path d="M 668.7 285.2 L 770.8 285.2 L 770.8 368.8 L 668.7 368.8 Z M 668.7 285.2 "></path></clipPath><g clip-path="url(#clip0x600001aad620)"><text xml:space="preserve" font-family="Helvetica-Light,Helvetica" font-size="49.0" fill="#000000" transform="matrix(1.00, 0.00, -0.00, -1.00, 688.5, 308.8)">N</text><text xml:space="preserve" font-family="Helvetica-Light,Helvetica" font-size="49.0" fill="#000000" transform="matrix(1.00, 0.00, -0.00, -1.00, 723.8, 308.8)">o</text></g></g><text xml:space="preserve" font-family="Helvetica-Light,Helvetica" font-size="36.0" fill="#000000" transform="matrix(1.00, 0.00, -0.00, -1.00, 437.7, 94.8)">S</text><text xml:space="preserve" font-family="Helvetica-Light,Helvetica" font-size="36.0" fill="#000000" transform="matrix(1.00, 0.00, -0.00, -1.00, 459.7, 94.8)">t</text><text xml:space="preserve" font-family="Helvetica-Light,Helvetica" font-size="36.0" fill="#000000" transform="matrix(1.00, 0.00, -0.00, -1.00, 469.7, 94.8)">a</text><text xml:space="preserve" font-family="Helvetica-Light,Helvetica" font-size="36.0" fill="#000000" transform="matrix(1.00, 0.00, -0.00, -1.00, 489.7, 94.8)">r</text><text xml:space="preserve" font-family="Helvetica-Light,Helvetica" font-size="36.0" fill="#000000" transform="matrix(1.00, 0.00, -0.00, -1.00, 502.3, 94.8)">t</text><text xml:space="preserve" font-family="Helvetica-Light,Helvetica" font-size="36.0" fill="#000000" transform="matrix(1.00, 0.00, -0.00, -1.00, 512.3, 94.8)"> </text><text xml:space="preserve" font-family="Helvetica-Light,Helvetica" font-size="36.0" fill="#000000" transform="matrix(1.00, 0.00, -0.00, -1.00, 522.3, 94.8)">O</text><text xml:space="preserve" font-family="Helvetica-Light,Helvetica" font-size="36.0" fill="#000000" transform="matrix(1.00, 0.00, -0.00, -1.00, 550.3, 94.8)">v</text><text xml:space="preserve" font-family="Helvetica-Light,Helvetica" font-size="36.0" fill="#000000" transform="matrix(1.00, 0.00, -0.00, -1.00, 568.3, 94.8)">e</text><text xml:space="preserve" font-family="Helvetica-Light,Helvetica" font-size="36.0" fill="#000000" transform="matrix(1.00, 0.00, -0.00, -1.00, 588.4, 94.8)">r</text><text xml:space="preserve" font-family="Helvetica-Bold,Helvetica" font-weight="bold" font-size="50.0" fill="#000000" transform="matrix(1.00, 0.00, -0.00, -1.00, 31.3, 663.5)">S</text><text xml:space="preserve" font-family="Helvetica-Bold,Helvetica" font-weight="bold" font-size="50.0" fill="#000000" transform="matrix(1.00, 0.00, -0.00, -1.00, 64.6, 663.5)">t</text><text xml:space="preserve" font-family="Helvetica-Bold,Helvetica" font-weight="bold" font-size="50.0" fill="#000000" transform="matrix(1.00, 0.00, -0.00, -1.00, 81.3, 663.5)">y</text><text xml:space="preserve" font-family="Helvetica-Bold,Helvetica" font-weight="bold" font-size="50.0" fill="#000000" transform="matrix(1.00, 0.00, -0.00, -1.00, 109.1, 663.5)">s</text><text xml:space="preserve" font-family="Helvetica-Bold,Helvetica" font-weight="bold" font-size="50.0" fill="#000000" transform="matrix(1.00, 0.00, -0.00, -1.00, 136.9, 663.5)">l</text><text xml:space="preserve" font-family="Helvetica-Bold,Helvetica" font-weight="bold" font-size="50.0" fill="#000000" transform="matrix(1.00, 0.00, -0.00, -1.00, 150.8, 663.5)">i</text><text xml:space="preserve" font-family="Helvetica-Bold,Helvetica" font-weight="bold" font-size="50.0" fill="#000000" transform="matrix(1.00, 0.00, -0.00, -1.00, 164.6, 663.5)">n</text><text xml:space="preserve" font-family="Helvetica-Bold,Helvetica" font-weight="bold" font-size="50.0" fill="#000000" transform="matrix(1.00, 0.00, -0.00, -1.00, 195.2, 663.5)">g</text><text xml:space="preserve" font-family="Helvetica-Bold,Helvetica" font-weight="bold" font-size="50.0" fill="#000000" transform="matrix(1.00, 0.00, -0.00, -1.00, 225.7, 663.5)">e</text><text xml:space="preserve" font-family="Helvetica-Bold,Helvetica" font-weight="bold" font-size="50.0" fill="#000000" transform="matrix(1.00, 0.00, -0.00, -1.00, 253.5, 663.5)">r</text><text xml:space="preserve" font-family="Helvetica-Bold,Helvetica" font-weight="bold" font-size="50.0" fill="#000000" transform="matrix(1.00, 0.00, -0.00, -1.00, 273.0, 663.5)"> </text><text xml:space="preserve" font-family="Helvetica-Bold,Helvetica" font-weight="bold" font-size="50.0" fill="#000000" transform="matrix(1.00, 0.00, -0.00, -1.00, 286.9, 663.5)">“</text><text xml:space="preserve" font-family="Helvetica-Bold,Helvetica" font-weight="bold" font-size="50.0" fill="#000000" transform="matrix(1.00, 0.00, -0.00, -1.00, 311.9, 663.5)">I</text><text xml:space="preserve" font-family="Helvetica-Bold,Helvetica" font-weight="bold" font-size="50.0" fill="#000000" transform="matrix(1.00, 0.00, -0.00, -1.00, 325.8, 663.5)">d</text><text xml:space="preserve" font-family="Helvetica-Bold,Helvetica" font-weight="bold" font-size="50.0" fill="#000000" transform="matrix(1.00, 0.00, -0.00, -1.00, 356.3, 663.5)">e</text><text xml:space="preserve" font-family="Helvetica-Bold,Helvetica" font-weight="bold" font-size="50.0" fill="#000000" transform="matrix(1.00, 0.00, -0.00, -1.00, 384.1, 663.5)">a</text><text xml:space="preserve" font-family="Helvetica-Bold,Helvetica" font-weight="bold" font-size="50.0" fill="#000000" transform="matrix(1.00, 0.00, -0.00, -1.00, 411.9, 663.5)">l</text><text xml:space="preserve" font-family="Helvetica-Bold,Helvetica" font-weight="bold" font-size="50.0" fill="#000000" transform="matrix(1.00, 0.00, -0.00, -1.00, 425.8, 663.5)">”</text><text xml:space="preserve" font-family="Helvetica-Bold,Helvetica" font-weight="bold" font-size="50.0" fill="#000000" transform="matrix(1.00, 0.00, -0.00, -1.00, 450.8, 663.5)"> </text><text xml:space="preserve" font-family="Helvetica-Bold,Helvetica" font-weight="bold" font-size="50.0" fill="#000000" transform="matrix(1.00, 0.00, -0.00, -1.00, 464.7, 663.5)">R</text><text xml:space="preserve" font-family="Helvetica-Bold,Helvetica" font-weight="bold" font-size="50.0" fill="#000000" transform="matrix(1.00, 0.00, -0.00, -1.00, 500.8, 663.5)">e</text><text xml:space="preserve" font-family="Helvetica-Bold,Helvetica" font-weight="bold" font-size="50.0" fill="#000000" transform="matrix(1.00, 0.00, -0.00, -1.00, 528.6, 663.5)">f</text><text xml:space="preserve" font-family="Helvetica-Bold,Helvetica" font-weight="bold" font-size="50.0" fill="#000000" transform="matrix(1.00, 0.00, -0.00, -1.00, 545.3, 663.5)">u</text><text xml:space="preserve" font-family="Helvetica-Bold,Helvetica" font-weight="bold" font-size="50.0" fill="#000000" transform="matrix(1.00, 0.00, -0.00, -1.00, 575.8, 663.5)">g</text><text xml:space="preserve" font-family="Helvetica-Bold,Helvetica" font-weight="bold" font-size="50.0" fill="#000000" transform="matrix(1.00, 0.00, -0.00, -1.00, 606.3, 663.5)">e</text><text xml:space="preserve" font-family="Helvetica-Bold,Helvetica" font-weight="bold" font-size="50.0" fill="#000000" transform="matrix(1.00, 0.00, -0.00, -1.00, 634.2, 663.5)">e</text><text xml:space="preserve" font-family="Helvetica-Bold,Helvetica" font-weight="bold" font-size="50.0" fill="#000000" transform="matrix(1.00, 0.00, -0.00, -1.00, 662.0, 663.5)"> </text><text xml:space="preserve" font-family="Helvetica-Bold,Helvetica" font-weight="bold" font-size="50.0" fill="#000000" transform="matrix(1.00, 0.00, -0.00, -1.00, 675.9, 663.5)">L</text><text xml:space="preserve" font-family="Helvetica-Bold,Helvetica" font-weight="bold" font-size="50.0" fill="#000000" transform="matrix(1.00, 0.00, -0.00, -1.00, 706.4, 663.5)">a</text><text xml:space="preserve" font-family="Helvetica-Bold,Helvetica" font-weight="bold" font-size="50.0" fill="#000000" transform="matrix(1.00, 0.00, -0.00, -1.00, 734.2, 663.5)">w</text><text xml:space="preserve" font-family="Helvetica-Bold,Helvetica" font-weight="bold" font-size="50.0" fill="#000000" transform="matrix(1.00, 0.00, -0.00, -1.00, 773.1, 663.5)"> </text><text xml:space="preserve" font-family="Helvetica-Bold,Helvetica" font-weight="bold" font-size="50.0" fill="#000000" transform="matrix(1.00, 0.00, -0.00, -1.00, 787.0, 663.5)">E</text><text xml:space="preserve" font-family="Helvetica-Bold,Helvetica" font-weight="bold" font-size="50.0" fill="#000000" transform="matrix(1.00, 0.00, -0.00, -1.00, 820.3, 663.5)">x</text><text xml:space="preserve" font-family="Helvetica-Bold,Helvetica" font-weight="bold" font-size="50.0" fill="#000000" transform="matrix(1.00, 0.00, -0.00, -1.00, 848.1, 663.5)">e</text><text xml:space="preserve" font-family="Helvetica-Bold,Helvetica" font-weight="bold" font-size="50.0" fill="#000000" transform="matrix(1.00, 0.00, -0.00, -1.00, 876.0, 663.5)">r</text><text xml:space="preserve" font-family="Helvetica-Bold,Helvetica" font-weight="bold" font-size="50.0" fill="#000000" transform="matrix(1.00, 0.00, -0.00, -1.00, 895.4, 663.5)">c</text><text xml:space="preserve" font-family="Helvetica-Bold,Helvetica" font-weight="bold" font-size="50.0" fill="#000000" transform="matrix(1.00, 0.00, -0.00, -1.00, 923.2, 663.5)">i</text><text xml:space="preserve" font-family="Helvetica-Bold,Helvetica" font-weight="bold" font-size="50.0" fill="#000000" transform="matrix(1.00, 0.00, -0.00, -1.00, 937.1, 663.5)">s</text><text xml:space="preserve" font-family="Helvetica-Bold,Helvetica" font-weight="bold" font-size="50.0" fill="#000000" transform="matrix(1.00, 0.00, -0.00, -1.00, 964.9, 663.5)">e</text><text xml:space="preserve" font-family="Helvetica-Light,Helvetica" font-size="20.0" fill="#000000" transform="matrix(1.00, 0.00, -0.00, -1.00, 113.9, 600.6)">C</text><text xml:space="preserve" font-family="Helvetica-Light,Helvetica" font-size="20.0" fill="#000000" transform="matrix(1.00, 0.00, -0.00, -1.00, 128.4, 600.6)">l</text><text xml:space="preserve" font-family="Helvetica-Light,Helvetica" font-size="20.0" fill="#000000" transform="matrix(1.00, 0.00, -0.00, -1.00, 132.8, 600.6)">i</text><text xml:space="preserve" font-family="Helvetica-Light,Helvetica" font-size="20.0" fill="#000000" transform="matrix(1.00, 0.00, -0.00, -1.00, 137.2, 600.6)">c</text><text xml:space="preserve" font-family="Helvetica-Light,Helvetica" font-size="20.0" fill="#000000" transform="matrix(1.00, 0.00, -0.00, -1.00, 148.4, 600.6)">k</text><text xml:space="preserve" font-family="Helvetica-Light,Helvetica" font-size="20.0" fill="#000000" transform="matrix(1.00, 0.00, -0.00, -1.00, 158.4, 600.6)"> </text><text xml:space="preserve" font-family="Helvetica-Light,Helvetica" font-size="20.0" fill="#000000" transform="matrix(1.00, 0.00, -0.00, -1.00, 163.9, 600.6)">“</text><text xml:space="preserve" font-family="Helvetica-Light,Helvetica" font-size="20.0" fill="#000000" transform="matrix(1.00, 0.00, -0.00, -1.00, 171.7, 600.6)">Y</text><text xml:space="preserve" font-family="Helvetica-Light,Helvetica" font-size="20.0" fill="#000000" transform="matrix(1.00, 0.00, -0.00, -1.00, 182.1, 600.6)">e</text><text xml:space="preserve" font-family="Helvetica-Light,Helvetica" font-size="20.0" fill="#000000" transform="matrix(1.00, 0.00, -0.00, -1.00, 193.2, 600.6)">s</text><text xml:space="preserve" font-family="Helvetica-Light,Helvetica" font-size="20.0" fill="#000000" transform="matrix(1.00, 0.00, -0.00, -1.00, 203.2, 600.6)">”</text><text xml:space="preserve" font-family="Helvetica-Light,Helvetica" font-size="20.0" fill="#000000" transform="matrix(1.00, 0.00, -0.00, -1.00, 211.0, 600.6)"> </text><text xml:space="preserve" font-family="Helvetica-Light,Helvetica" font-size="20.0" fill="#000000" transform="matrix(1.00, 0.00, -0.00, -1.00, 216.6, 600.6)">o</text><text xml:space="preserve" font-family="Helvetica-Light,Helvetica" font-size="20.0" fill="#000000" transform="matrix(1.00, 0.00, -0.00, -1.00, 227.7, 600.6)">r</text><text xml:space="preserve" font-family="Helvetica-Light,Helvetica" font-size="20.0" fill="#000000" transform="matrix(1.00, 0.00, -0.00, -1.00, 234.3, 600.6)"> </text><text xml:space="preserve" font-family="Helvetica-Light,Helvetica" font-size="20.0" fill="#000000" transform="matrix(1.00, 0.00, -0.00, -1.00, 239.9, 600.6)">“</text><text xml:space="preserve" font-family="Helvetica-Light,Helvetica" font-size="20.0" fill="#000000" transform="matrix(1.00, 0.00, -0.00, -1.00, 247.7, 600.6)">N</text><text xml:space="preserve" font-family="Helvetica-Light,Helvetica" font-size="20.0" fill="#000000" transform="matrix(1.00, 0.00, -0.00, -1.00, 262.1, 600.6)">o</text><text xml:space="preserve" font-family="Helvetica-Light,Helvetica" font-size="20.0" fill="#000000" transform="matrix(1.00, 0.00, -0.00, -1.00, 273.2, 600.6)">”</text><text xml:space="preserve" font-family="Helvetica-Light,Helvetica" font-size="20.0" fill="#000000" transform="matrix(1.00, 0.00, -0.00, -1.00, 281.0, 600.6)"> </text><text xml:space="preserve" font-family="Helvetica-Light,Helvetica" font-size="20.0" fill="#000000" transform="matrix(1.00, 0.00, -0.00, -1.00, 286.6, 600.6)">t</text><text xml:space="preserve" font-family="Helvetica-Light,Helvetica" font-size="20.0" fill="#000000" transform="matrix(1.00, 0.00, -0.00, -1.00, 292.1, 600.6)">o</text><text xml:space="preserve" font-family="Helvetica-Light,Helvetica" font-size="20.0" fill="#000000" transform="matrix(1.00, 0.00, -0.00, -1.00, 303.2, 600.6)"> </text><text xml:space="preserve" font-family="Helvetica-Light,Helvetica" font-size="20.0" fill="#000000" transform="matrix(1.00, 0.00, -0.00, -1.00, 308.8, 600.6)">d</text><text xml:space="preserve" font-family="Helvetica-Light,Helvetica" font-size="20.0" fill="#000000" transform="matrix(1.00, 0.00, -0.00, -1.00, 321.0, 600.6)">e</text><text xml:space="preserve" font-family="Helvetica-Light,Helvetica" font-size="20.0" fill="#000000" transform="matrix(1.00, 0.00, -0.00, -1.00, 332.2, 600.6)">t</text><text xml:space="preserve" font-family="Helvetica-Light,Helvetica" font-size="20.0" fill="#000000" transform="matrix(1.00, 0.00, -0.00, -1.00, 337.7, 600.6)">e</text><text xml:space="preserve" font-family="Helvetica-Light,Helvetica" font-size="20.0" fill="#000000" transform="matrix(1.00, 0.00, -0.00, -1.00, 348.8, 600.6)">r</text><text xml:space="preserve" font-family="Helvetica-Light,Helvetica" font-size="20.0" fill="#000000" transform="matrix(1.00, 0.00, -0.00, -1.00, 355.9, 600.6)">m</text><text xml:space="preserve" font-family="Helvetica-Light,Helvetica" font-size="20.0" fill="#000000" transform="matrix(1.00, 0.00, -0.00, -1.00, 372.5, 600.6)">i</text><text xml:space="preserve" font-family="Helvetica-Light,Helvetica" font-size="20.0" fill="#000000" transform="matrix(1.00, 0.00, -0.00, -1.00, 377.0, 600.6)">n</text><text xml:space="preserve" font-family="Helvetica-Light,Helvetica" font-size="20.0" fill="#000000" transform="matrix(1.00, 0.00, -0.00, -1.00, 388.1, 600.6)">e</text><text xml:space="preserve" font-family="Helvetica-Light,Helvetica" font-size="20.0" fill="#000000" transform="matrix(1.00, 0.00, -0.00, -1.00, 399.2, 600.6)"> </text><text xml:space="preserve" font-family="Helvetica-Light,Helvetica" font-size="20.0" fill="#000000" transform="matrix(1.00, 0.00, -0.00, -1.00, 404.8, 600.6)">w</text><text xml:space="preserve" font-family="Helvetica-Light,Helvetica" font-size="20.0" fill="#000000" transform="matrix(1.00, 0.00, -0.00, -1.00, 419.2, 600.6)">h</text><text xml:space="preserve" font-family="Helvetica-Light,Helvetica" font-size="20.0" fill="#000000" transform="matrix(1.00, 0.00, -0.00, -1.00, 430.3, 600.6)">e</text><text xml:space="preserve" font-family="Helvetica-Light,Helvetica" font-size="20.0" fill="#000000" transform="matrix(1.00, 0.00, -0.00, -1.00, 441.4, 600.6)">t</text><text xml:space="preserve" font-family="Helvetica-Light,Helvetica" font-size="20.0" fill="#000000" transform="matrix(1.00, 0.00, -0.00, -1.00, 447.0, 600.6)">h</text><text xml:space="preserve" font-family="Helvetica-Light,Helvetica" font-size="20.0" fill="#000000" transform="matrix(1.00, 0.00, -0.00, -1.00, 458.1, 600.6)">e</text><text xml:space="preserve" font-family="Helvetica-Light,Helvetica" font-size="20.0" fill="#000000" transform="matrix(1.00, 0.00, -0.00, -1.00, 469.2, 600.6)">r</text><text xml:space="preserve" font-family="Helvetica-Light,Helvetica" font-size="20.0" fill="#000000" transform="matrix(1.00, 0.00, -0.00, -1.00, 475.9, 600.6)"> </text><text xml:space="preserve" font-family="Helvetica-Light,Helvetica" font-size="20.0" fill="#000000" transform="matrix(1.00, 0.00, -0.00, -1.00, 481.5, 600.6)">t</text><text xml:space="preserve" font-family="Helvetica-Light,Helvetica" font-size="20.0" fill="#000000" transform="matrix(1.00, 0.00, -0.00, -1.00, 487.0, 600.6)">h</text><text xml:space="preserve" font-family="Helvetica-Light,Helvetica" font-size="20.0" fill="#000000" transform="matrix(1.00, 0.00, -0.00, -1.00, 498.1, 600.6)">e</text><text xml:space="preserve" font-family="Helvetica-Light,Helvetica" font-size="20.0" fill="#000000" transform="matrix(1.00, 0.00, -0.00, -1.00, 509.3, 600.6)"> </text><text xml:space="preserve" font-family="Helvetica-Light,Helvetica" font-size="20.0" fill="#000000" transform="matrix(1.00, 0.00, -0.00, -1.00, 514.8, 600.6)">c</text><text xml:space="preserve" font-family="Helvetica-Light,Helvetica" font-size="20.0" fill="#000000" transform="matrix(1.00, 0.00, -0.00, -1.00, 525.9, 600.6)">l</text><text xml:space="preserve" font-family="Helvetica-Light,Helvetica" font-size="20.0" fill="#000000" transform="matrix(1.00, 0.00, -0.00, -1.00, 530.4, 600.6)">i</text><text xml:space="preserve" font-family="Helvetica-Light,Helvetica" font-size="20.0" fill="#000000" transform="matrix(1.00, 0.00, -0.00, -1.00, 534.8, 600.6)">e</text><text xml:space="preserve" font-family="Helvetica-Light,Helvetica" font-size="20.0" fill="#000000" transform="matrix(1.00, 0.00, -0.00, -1.00, 545.9, 600.6)">n</text><text xml:space="preserve" font-family="Helvetica-Light,Helvetica" font-size="20.0" fill="#000000" transform="matrix(1.00, 0.00, -0.00, -1.00, 557.1, 600.6)">t</text><text xml:space="preserve" font-family="Helvetica-Light,Helvetica" font-size="20.0" fill="#000000" transform="matrix(1.00, 0.00, -0.00, -1.00, 562.6, 600.6)"> </text><text xml:space="preserve" font-family="Helvetica-Light,Helvetica" font-size="20.0" fill="#000000" transform="matrix(1.00, 0.00, -0.00, -1.00, 568.2, 600.6)">i</text><text xml:space="preserve" font-family="Helvetica-Light,Helvetica" font-size="20.0" fill="#000000" transform="matrix(1.00, 0.00, -0.00, -1.00, 572.6, 600.6)">s</text><text xml:space="preserve" font-family="Helvetica-Light,Helvetica" font-size="20.0" fill="#000000" transform="matrix(1.00, 0.00, -0.00, -1.00, 582.6, 600.6)"> </text><text xml:space="preserve" font-family="Helvetica-Light,Helvetica" font-size="20.0" fill="#000000" transform="matrix(1.00, 0.00, -0.00, -1.00, 588.2, 600.6)">a</text><text xml:space="preserve" font-family="Helvetica-Light,Helvetica" font-size="20.0" fill="#000000" transform="matrix(1.00, 0.00, -0.00, -1.00, 599.3, 600.6)">l</text><text xml:space="preserve" font-family="Helvetica-Light,Helvetica" font-size="20.0" fill="#000000" transform="matrix(1.00, 0.00, -0.00, -1.00, 603.7, 600.6)">l</text><text xml:space="preserve" font-family="Helvetica-Light,Helvetica" font-size="20.0" fill="#000000" transform="matrix(1.00, 0.00, -0.00, -1.00, 608.2, 600.6)">o</text><text xml:space="preserve" font-family="Helvetica-Light,Helvetica" font-size="20.0" fill="#000000" transform="matrix(1.00, 0.00, -0.00, -1.00, 619.3, 600.6)">w</text><text xml:space="preserve" font-family="Helvetica-Light,Helvetica" font-size="20.0" fill="#000000" transform="matrix(1.00, 0.00, -0.00, -1.00, 633.7, 600.6)">e</text><text xml:space="preserve" font-family="Helvetica-Light,Helvetica" font-size="20.0" fill="#000000" transform="matrix(1.00, 0.00, -0.00, -1.00, 644.9, 600.6)">d</text><text xml:space="preserve" font-family="Helvetica-Light,Helvetica" font-size="20.0" fill="#000000" transform="matrix(1.00, 0.00, -0.00, -1.00, 657.1, 600.6)"> </text><text xml:space="preserve" font-family="Helvetica-Light,Helvetica" font-size="20.0" fill="#000000" transform="matrix(1.00, 0.00, -0.00, -1.00, 662.6, 600.6)">t</text><text xml:space="preserve" font-family="Helvetica-Light,Helvetica" font-size="20.0" fill="#000000" transform="matrix(1.00, 0.00, -0.00, -1.00, 668.2, 600.6)">o</text><text xml:space="preserve" font-family="Helvetica-Light,Helvetica" font-size="20.0" fill="#000000" transform="matrix(1.00, 0.00, -0.00, -1.00, 679.3, 600.6)"> </text><text xml:space="preserve" font-family="Helvetica-Light,Helvetica" font-size="20.0" fill="#000000" transform="matrix(1.00, 0.00, -0.00, -1.00, 684.9, 600.6)">t</text><text xml:space="preserve" font-family="Helvetica-Light,Helvetica" font-size="20.0" fill="#000000" transform="matrix(1.00, 0.00, -0.00, -1.00, 690.4, 600.6)">r</text><text xml:space="preserve" font-family="Helvetica-Light,Helvetica" font-size="20.0" fill="#000000" transform="matrix(1.00, 0.00, -0.00, -1.00, 697.1, 600.6)">a</text><text xml:space="preserve" font-family="Helvetica-Light,Helvetica" font-size="20.0" fill="#000000" transform="matrix(1.00, 0.00, -0.00, -1.00, 708.2, 600.6)">v</text><text xml:space="preserve" font-family="Helvetica-Light,Helvetica" font-size="20.0" fill="#000000" transform="matrix(1.00, 0.00, -0.00, -1.00, 718.2, 600.6)">e</text><text xml:space="preserve" font-family="Helvetica-Light,Helvetica" font-size="20.0" fill="#000000" transform="matrix(1.00, 0.00, -0.00, -1.00, 729.3, 600.6)">l</text><text xml:space="preserve" font-family="Helvetica-Light,Helvetica" font-size="20.0" fill="#000000" transform="matrix(1.00, 0.00, -0.00, -1.00, 733.8, 600.6)"> </text><text xml:space="preserve" font-family="Helvetica-Light,Helvetica" font-size="20.0" fill="#000000" transform="matrix(1.00, 0.00, -0.00, -1.00, 739.3, 600.6)">t</text><text xml:space="preserve" font-family="Helvetica-Light,Helvetica" font-size="20.0" fill="#000000" transform="matrix(1.00, 0.00, -0.00, -1.00, 744.9, 600.6)">o</text><text xml:space="preserve" font-family="Helvetica-Light,Helvetica" font-size="20.0" fill="#000000" transform="matrix(1.00, 0.00, -0.00, -1.00, 756.0, 600.6)">/</text><text xml:space="preserve" font-family="Helvetica-Light,Helvetica" font-size="20.0" fill="#000000" transform="matrix(1.00, 0.00, -0.00, -1.00, 761.6, 600.6)">s</text><text xml:space="preserve" font-family="Helvetica-Light,Helvetica" font-size="20.0" fill="#000000" transform="matrix(1.00, 0.00, -0.00, -1.00, 771.6, 600.6)">t</text><text xml:space="preserve" font-family="Helvetica-Light,Helvetica" font-size="20.0" fill="#000000" transform="matrix(1.00, 0.00, -0.00, -1.00, 777.1, 600.6)">a</text><text xml:space="preserve" font-family="Helvetica-Light,Helvetica" font-size="20.0" fill="#000000" transform="matrix(1.00, 0.00, -0.00, -1.00, 788.2, 600.6)">y</text><text xml:space="preserve" font-family="Helvetica-Light,Helvetica" font-size="20.0" fill="#000000" transform="matrix(1.00, 0.00, -0.00, -1.00, 798.2, 600.6)"> </text><text xml:space="preserve" font-family="Helvetica-Light,Helvetica" font-size="20.0" fill="#000000" transform="matrix(1.00, 0.00, -0.00, -1.00, 803.8, 600.6)">i</text><text xml:space="preserve" font-family="Helvetica-Light,Helvetica" font-size="20.0" fill="#000000" transform="matrix(1.00, 0.00, -0.00, -1.00, 808.2, 600.6)">n</text><text xml:space="preserve" font-family="Helvetica-Light,Helvetica" font-size="20.0" fill="#000000" transform="matrix(1.00, 0.00, -0.00, -1.00, 819.4, 600.6)"> </text><text xml:space="preserve" font-family="Helvetica-Light,Helvetica" font-size="20.0" fill="#000000" transform="matrix(1.00, 0.00, -0.00, -1.00, 824.9, 600.6)">t</text><text xml:space="preserve" font-family="Helvetica-Light,Helvetica" font-size="20.0" fill="#000000" transform="matrix(1.00, 0.00, -0.00, -1.00, 830.5, 600.6)">h</text><text xml:space="preserve" font-family="Helvetica-Light,Helvetica" font-size="20.0" fill="#000000" transform="matrix(1.00, 0.00, -0.00, -1.00, 841.6, 600.6)">e</text><text xml:space="preserve" font-family="Helvetica-Light,Helvetica" font-size="20.0" fill="#000000" transform="matrix(1.00, 0.00, -0.00, -1.00, 852.7, 600.6)"> </text><text xml:space="preserve" font-family="Helvetica-Light,Helvetica" font-size="20.0" fill="#000000" transform="matrix(1.00, 0.00, -0.00, -1.00, 858.3, 600.6)">U</text><text xml:space="preserve" font-family="Helvetica-Light,Helvetica" font-size="20.0" fill="#000000" transform="matrix(1.00, 0.00, -0.00, -1.00, 872.7, 600.6)">.</text><text xml:space="preserve" font-family="Helvetica-Light,Helvetica" font-size="20.0" fill="#000000" transform="matrix(1.00, 0.00, -0.00, -1.00, 878.3, 600.6)">S</text><text xml:space="preserve" font-family="Helvetica-Light,Helvetica" font-size="20.0" fill="#000000" transform="matrix(1.00, 0.00, -0.00, -1.00, 890.5, 600.6)">.</text><text xml:space="preserve" font-family="Helvetica-Light,Helvetica" font-size="20.0" fill="#000000" transform="matrix(1.00, 0.00, -0.00, -1.00, 896.1, 600.6)"> </text></g></svg>