<?xml version="1.0" encoding="UTF-8" standalone="no"?><svg xmlns="http://www.w3.org/2000/svg" xmlns:xlink="http://www.w3.org/1999/xlink" clip-rule="evenodd" stroke-miterlimit="10" viewBox="0 0 1024 768"><desc>SVG generated by Keynote</desc><defs></defs><g transform="matrix(1.00, 0.00, -0.00, -1.00, 0.0, 768.0)"><path d="M 0.0 768.0 L 1024.0 768.0 L 1024.0 0.0 L 0.0 0.0 Z M 0.0 768.0 " fill="#FEFFFF"></path><text xml:space="preserve" font-family="Helvetica-Light,Helvetica" font-size="47.0" fill="#000000" transform="matrix(1.00, 0.00, -0.00, -1.00, 64.0, 466.3)">H</text><text xml:space="preserve" font-family="Helvetica-Light,Helvetica" font-size="47.0" fill="#000000" transform="matrix(1.00, 0.00, -0.00, -1.00, 98.0, 466.3)">a</text><text xml:space="preserve" font-family="Helvetica-Light,Helvetica" font-size="47.0" fill="#000000" transform="matrix(1.00, 0.00, -0.00, -1.00, 124.1, 466.3)">s</text><text xml:space="preserve" font-family="Helvetica-Light,Helvetica" font-size="47.0" fill="#000000" transform="matrix(1.00, 0.00, -0.00, -1.00, 147.6, 466.3)"> </text><text xml:space="preserve" font-family="Helvetica-Light,Helvetica" font-size="47.0" fill="#000000" transform="matrix(1.00, 0.00, -0.00, -1.00, 160.7, 466.3)">t</text><text xml:space="preserve" font-family="Helvetica-Light,Helvetica" font-size="47.0" fill="#000000" transform="matrix(1.00, 0.00, -0.00, -1.00, 173.7, 466.3)">h</text><text xml:space="preserve" font-family="Helvetica-Light,Helvetica" font-size="47.0" fill="#000000" transform="matrix(1.00, 0.00, -0.00, -1.00, 199.9, 466.3)">e</text><text xml:space="preserve" font-family="Helvetica-Light,Helvetica" font-size="47.0" fill="#000000" transform="matrix(1.00, 0.00, -0.00, -1.00, 226.0, 466.3)"> </text><text xml:space="preserve" font-family="Helvetica-Light,Helvetica" font-size="47.0" fill="#000000" transform="matrix(1.00, 0.00, -0.00, -1.00, 239.1, 466.3)">c</text><text xml:space="preserve" font-family="Helvetica-Light,Helvetica" font-size="47.0" fill="#000000" transform="matrix(1.00, 0.00, -0.00, -1.00, 265.2, 466.3)">l</text><text xml:space="preserve" font-family="Helvetica-Light,Helvetica" font-size="47.0" fill="#000000" transform="matrix(1.00, 0.00, -0.00, -1.00, 275.6, 466.3)">i</text><text xml:space="preserve" font-family="Helvetica-Light,Helvetica" font-size="47.0" fill="#000000" transform="matrix(1.00, 0.00, -0.00, -1.00, 286.1, 466.3)">e</text><text xml:space="preserve" font-family="Helvetica-Light,Helvetica" font-size="47.0" fill="#000000" transform="matrix(1.00, 0.00, -0.00, -1.00, 312.2, 466.3)">n</text><text xml:space="preserve" font-family="Helvetica-Light,Helvetica" font-size="47.0" fill="#000000" transform="matrix(1.00, 0.00, -0.00, -1.00, 338.3, 466.3)">t</text><text xml:space="preserve" font-family="Helvetica-Light,Helvetica" font-size="47.0" fill="#000000" transform="matrix(1.00, 0.00, -0.00, -1.00, 351.4, 466.3)"> </text><text xml:space="preserve" font-family="Helvetica-Light,Helvetica" font-size="47.0" fill="#000000" transform="matrix(1.00, 0.00, -0.00, -1.00, 364.5, 466.3)">b</text><text xml:space="preserve" font-family="Helvetica-Light,Helvetica" font-size="47.0" fill="#000000" transform="matrix(1.00, 0.00, -0.00, -1.00, 393.2, 466.3)">e</text><text xml:space="preserve" font-family="Helvetica-Light,Helvetica" font-size="47.0" fill="#000000" transform="matrix(1.00, 0.00, -0.00, -1.00, 419.3, 466.3)">e</text><text xml:space="preserve" font-family="Helvetica-Light,Helvetica" font-size="47.0" fill="#000000" transform="matrix(1.00, 0.00, -0.00, -1.00, 445.4, 466.3)">n</text><text xml:space="preserve" font-family="Helvetica-Light,Helvetica" font-size="47.0" fill="#000000" transform="matrix(1.00, 0.00, -0.00, -1.00, 471.6, 466.3)"> </text><text xml:space="preserve" font-family="Helvetica-Light,Helvetica" font-size="47.0" fill="#000000" transform="matrix(1.00, 0.00, -0.00, -1.00, 484.6, 466.3)">d</text><text xml:space="preserve" font-family="Helvetica-Light,Helvetica" font-size="47.0" fill="#000000" transform="matrix(1.00, 0.00, -0.00, -1.00, 513.4, 466.3)">i</text><text xml:space="preserve" font-family="Helvetica-Light,Helvetica" font-size="47.0" fill="#000000" transform="matrix(1.00, 0.00, -0.00, -1.00, 523.8, 466.3)">a</text><text xml:space="preserve" font-family="Helvetica-Light,Helvetica" font-size="47.0" fill="#000000" transform="matrix(1.00, 0.00, -0.00, -1.00, 549.9, 466.3)">g</text><text xml:space="preserve" font-family="Helvetica-Light,Helvetica" font-size="47.0" fill="#000000" transform="matrix(1.00, 0.00, -0.00, -1.00, 578.6, 466.3)">n</text><text xml:space="preserve" font-family="Helvetica-Light,Helvetica" font-size="47.0" fill="#000000" transform="matrix(1.00, 0.00, -0.00, -1.00, 604.8, 466.3)">o</text><text xml:space="preserve" font-family="Helvetica-Light,Helvetica" font-size="47.0" fill="#000000" transform="matrix(1.00, 0.00, -0.00, -1.00, 630.9, 466.3)">s</text><text xml:space="preserve" font-family="Helvetica-Light,Helvetica" font-size="47.0" fill="#000000" transform="matrix(1.00, 0.00, -0.00, -1.00, 654.4, 466.3)">e</text><text xml:space="preserve" font-family="Helvetica-Light,Helvetica" font-size="47.0" fill="#000000" transform="matrix(1.00, 0.00, -0.00, -1.00, 680.5, 466.3)">d</text><text xml:space="preserve" font-family="Helvetica-Light,Helvetica" font-size="47.0" fill="#000000" transform="matrix(1.00, 0.00, -0.00, -1.00, 709.3, 466.3)"> </text><text xml:space="preserve" font-family="Helvetica-Light,Helvetica" font-size="47.0" fill="#000000" transform="matrix(1.00, 0.00, -0.00, -1.00, 722.3, 466.3)">w</text><text xml:space="preserve" font-family="Helvetica-Light,Helvetica" font-size="47.0" fill="#000000" transform="matrix(1.00, 0.00, -0.00, -1.00, 756.3, 466.3)">i</text><text xml:space="preserve" font-family="Helvetica-Light,Helvetica" font-size="47.0" fill="#000000" transform="matrix(1.00, 0.00, -0.00, -1.00, 766.7, 466.3)">t</text><text xml:space="preserve" font-family="Helvetica-Light,Helvetica" font-size="47.0" fill="#000000" transform="matrix(1.00, 0.00, -0.00, -1.00, 779.8, 466.3)">h</text><text xml:space="preserve" font-family="Helvetica-Light,Helvetica" font-size="47.0" fill="#000000" transform="matrix(1.00, 0.00, -0.00, -1.00, 805.9, 466.3)"> </text><text xml:space="preserve" font-family="Helvetica-Light,Helvetica" font-size="47.0" fill="#000000" transform="matrix(1.00, 0.00, -0.00, -1.00, 819.0, 466.3)">P</text><text xml:space="preserve" font-family="Helvetica-Light,Helvetica" font-size="47.0" fill="#000000" transform="matrix(1.00, 0.00, -0.00, -1.00, 847.7, 466.3)">T</text><text xml:space="preserve" font-family="Helvetica-Light,Helvetica" font-size="47.0" fill="#000000" transform="matrix(1.00, 0.00, -0.00, -1.00, 873.8, 466.3)">S</text><text xml:space="preserve" font-family="Helvetica-Light,Helvetica" font-size="47.0" fill="#000000" transform="matrix(1.00, 0.00, -0.00, -1.00, 902.5, 466.3)">D</text><text xml:space="preserve" font-family="Helvetica-Light,Helvetica" font-size="47.0" fill="#000000" transform="matrix(1.00, 0.00, -0.00, -1.00, 936.5, 466.3)">?</text><path d="M 290.5 361.5 L 378.5 361.5 L 378.5 291.5 L 290.5 291.5 Z M 290.1 362.0 " fill="#72FA78"></path><path d="M 0.4 0.5 L 88.4 0.5 L 88.4 70.5 L 0.4 70.5 Z M 0.0 0.0 " fill="none" stroke="#000000" stroke-width="3.00" transform="matrix(1.00, 0.00, 0.00, -1.00, 290.1, 362.0)"></path><g><clipPath id="clip0x6000014a7020"><path d="M 283.4 285.2 L 385.4 285.2 L 385.4 368.8 L 283.4 368.8 Z M 283.4 285.2 "></path></clipPath><g clip-path="url(#clip0x6000014a7020)"><text xml:space="preserve" font-family="Helvetica-Light,Helvetica" font-size="49.0" fill="#000000" transform="matrix(1.00, 0.00, -0.00, -1.00, 295.6, 308.8)">Y</text><text xml:space="preserve" font-family="Helvetica-Light,Helvetica" font-size="49.0" fill="#000000" transform="matrix(1.00, 0.00, -0.00, -1.00, 321.1, 308.8)">e</text><text xml:space="preserve" font-family="Helvetica-Light,Helvetica" font-size="49.0" fill="#000000" transform="matrix(1.00, 0.00, -0.00, -1.00, 348.3, 308.8)">s</text></g></g><path d="M 558.5 361.5 L 878.5 361.5 L 878.5 291.5 L 558.5 291.5 Z M 558.5 362.0 " fill="#FF7D78"></path><path d="M 0.0 0.5 L 320.0 0.5 L 320.0 70.5 L 0.0 70.5 Z M 0.0 0.0 " fill="none" stroke="#000000" stroke-width="3.00" transform="matrix(1.00, 0.00, 0.00, -1.00, 558.5, 362.0)"></path><g><clipPath id="clip0x6000014a71a0"><path d="M 551.7 285.2 L 885.6 285.2 L 885.6 368.8 L 551.7 368.8 Z M 551.7 285.2 "></path></clipPath><g clip-path="url(#clip0x6000014a71a0)"><text xml:space="preserve" font-family="Helvetica-Light,Helvetica" font-size="49.0" fill="#000000" transform="matrix(1.00, 0.00, -0.00, -1.00, 578.4, 308.8)">N</text><text xml:space="preserve" font-family="Helvetica-Light,Helvetica" font-size="49.0" fill="#000000" transform="matrix(1.00, 0.00, -0.00, -1.00, 613.8, 308.8)">o</text><text xml:space="preserve" font-family="Helvetica-Light,Helvetica" font-size="49.0" fill="#000000" transform="matrix(1.00, 0.00, -0.00, -1.00, 641.0, 308.8)">/</text><text xml:space="preserve" font-family="Helvetica-Light,Helvetica" font-size="49.0" fill="#000000" transform="matrix(1.00, 0.00, -0.00, -1.00, 654.7, 308.8)">U</text><text xml:space="preserve" font-family="Helvetica-Light,Helvetica" font-size="49.0" fill="#000000" transform="matrix(1.00, 0.00, -0.00, -1.00, 690.0, 308.8)">n</text><text xml:space="preserve" font-family="Helvetica-Light,Helvetica" font-size="49.0" fill="#000000" transform="matrix(1.00, 0.00, -0.00, -1.00, 717.3, 308.8)">k</text><text xml:space="preserve" font-family="Helvetica-Light,Helvetica" font-size="49.0" fill="#000000" transform="matrix(1.00, 0.00, -0.00, -1.00, 741.8, 308.8)">n</text><text xml:space="preserve" font-family="Helvetica-Light,Helvetica" font-size="49.0" fill="#000000" transform="matrix(1.00, 0.00, -0.00, -1.00, 769.0, 308.8)">o</text><text xml:space="preserve" font-family="Helvetica-Light,Helvetica" font-size="49.0" fill="#000000" transform="matrix(1.00, 0.00, -0.00, -1.00, 796.3, 308.8)">w</text><text xml:space="preserve" font-family="Helvetica-Light,Helvetica" font-size="49.0" fill="#000000" transform="matrix(1.00, 0.00, -0.00, -1.00, 831.6, 308.8)">n</text></g></g><text xml:space="preserve" font-family="Helvetica-Light,Helvetica" font-size="36.0" fill="#000000" transform="matrix(1.00, 0.00, -0.00, -1.00, 437.7, 94.8)">S</text><text xml:space="preserve" font-family="Helvetica-Light,Helvetica" font-size="36.0" fill="#000000" transform="matrix(1.00, 0.00, -0.00, -1.00, 459.7, 94.8)">t</text><text xml:space="preserve" font-family="Helvetica-Light,Helvetica" font-size="36.0" fill="#000000" transform="matrix(1.00, 0.00, -0.00, -1.00, 469.7, 94.8)">a</text><text xml:space="preserve" font-family="Helvetica-Light,Helvetica" font-size="36.0" fill="#000000" transform="matrix(1.00, 0.00, -0.00, -1.00, 489.7, 94.8)">r</text><text xml:space="preserve" font-family="Helvetica-Light,Helvetica" font-size="36.0" fill="#000000" transform="matrix(1.00, 0.00, -0.00, -1.00, 502.3, 94.8)">t</text><text xml:space="preserve" font-family="Helvetica-Light,Helvetica" font-size="36.0" fill="#000000" transform="matrix(1.00, 0.00, -0.00, -1.00, 512.3, 94.8)"> </text><text xml:space="preserve" font-family="Helvetica-Light,Helvetica" font-size="36.0" fill="#000000" transform="matrix(1.00, 0.00, -0.00, -1.00, 522.3, 94.8)">O</text><text xml:space="preserve" font-family="Helvetica-Light,Helvetica" font-size="36.0" fill="#000000" transform="matrix(1.00, 0.00, -0.00, -1.00, 550.3, 94.8)">v</text><text xml:space="preserve" font-family="Helvetica-Light,Helvetica" font-size="36.0" fill="#000000" transform="matrix(1.00, 0.00, -0.00, -1.00, 568.3, 94.8)">e</text><text xml:space="preserve" font-family="Helvetica-Light,Helvetica" font-size="36.0" fill="#000000" transform="matrix(1.00, 0.00, -0.00, -1.00, 588.4, 94.8)">r</text></g></svg>