<?xml version="1.0" encoding="UTF-8" standalone="no"?><svg xmlns="http://www.w3.org/2000/svg" xmlns:xlink="http://www.w3.org/1999/xlink" clip-rule="evenodd" stroke-miterlimit="10" viewBox="0 0 1024 768"><desc>SVG generated by Keynote</desc><defs></defs><g transform="matrix(1.00, 0.00, -0.00, -1.00, 0.0, 768.0)"><path d="M 0.0 768.0 L 1024.0 768.0 L 1024.0 0.0 L 0.0 0.0 Z M 0.0 768.0 " fill="#FEFFFF"></path><text xml:space="preserve" font-family="Helvetica,Helvetica" font-size="40.0" fill="#000000" transform="matrix(1.00, 0.00, -0.00, -1.00, 346.5, 566.7)">“</text><text xml:space="preserve" font-family="Helvetica,Helvetica" font-size="40.0" fill="#000000" transform="matrix(1.00, 0.00, -0.00, -1.00, 359.8, 566.7)">E</text><text xml:space="preserve" font-family="Helvetica,Helvetica" font-size="40.0" fill="#000000" transform="matrix(1.00, 0.00, -0.00, -1.00, 386.5, 566.7)">s</text><text xml:space="preserve" font-family="Helvetica,Helvetica" font-size="40.0" fill="#000000" transform="matrix(1.00, 0.00, -0.00, -1.00, 406.5, 566.7)">t</text><text xml:space="preserve" font-family="Helvetica,Helvetica" font-size="40.0" fill="#000000" transform="matrix(1.00, 0.00, -0.00, -1.00, 417.6, 566.7)">a</text><text xml:space="preserve" font-family="Helvetica,Helvetica" font-size="40.0" fill="#000000" transform="matrix(1.00, 0.00, -0.00, -1.00, 439.8, 566.7)">b</text><text xml:space="preserve" font-family="Helvetica,Helvetica" font-size="40.0" fill="#000000" transform="matrix(1.00, 0.00, -0.00, -1.00, 462.1, 566.7)">l</text><text xml:space="preserve" font-family="Helvetica,Helvetica" font-size="40.0" fill="#000000" transform="matrix(1.00, 0.00, -0.00, -1.00, 471.0, 566.7)">i</text><text xml:space="preserve" font-family="Helvetica,Helvetica" font-size="40.0" fill="#000000" transform="matrix(1.00, 0.00, -0.00, -1.00, 479.9, 566.7)">s</text><text xml:space="preserve" font-family="Helvetica,Helvetica" font-size="40.0" fill="#000000" transform="matrix(1.00, 0.00, -0.00, -1.00, 499.9, 566.7)">h</text><text xml:space="preserve" font-family="Helvetica,Helvetica" font-size="40.0" fill="#000000" transform="matrix(1.00, 0.00, -0.00, -1.00, 522.1, 566.7)">e</text><text xml:space="preserve" font-family="Helvetica,Helvetica" font-size="40.0" fill="#000000" transform="matrix(1.00, 0.00, -0.00, -1.00, 544.4, 566.7)">d</text><text xml:space="preserve" font-family="Helvetica,Helvetica" font-size="40.0" fill="#000000" transform="matrix(1.00, 0.00, -0.00, -1.00, 566.6, 566.7)"> </text><text xml:space="preserve" font-family="Helvetica,Helvetica" font-size="40.0" fill="#000000" transform="matrix(1.00, 0.00, -0.00, -1.00, 577.7, 566.7)">L</text><text xml:space="preserve" font-family="Helvetica,Helvetica" font-size="40.0" fill="#000000" transform="matrix(1.00, 0.00, -0.00, -1.00, 600.0, 566.7)">i</text><text xml:space="preserve" font-family="Helvetica,Helvetica" font-size="40.0" fill="#000000" transform="matrix(1.00, 0.00, -0.00, -1.00, 608.9, 566.7)">f</text><text xml:space="preserve" font-family="Helvetica,Helvetica" font-size="40.0" fill="#000000" transform="matrix(1.00, 0.00, -0.00, -1.00, 620.0, 566.7)">e</text><text xml:space="preserve" font-family="Helvetica,Helvetica" font-size="40.0" fill="#000000" transform="matrix(1.00, 0.00, -0.00, -1.00, 642.3, 566.7)">”</text><g><clipPath id="clip0x6000016be000"><path d="M 345.5 561.7 L 655.5 561.7 L 655.5 565.7 L 345.5 565.7 Z M 345.5 561.7 "></path></clipPath><g clip-path="url(#clip0x6000016be000)"><path d="M 277.4 45.8 L 586.5 45.8 " fill="none" stroke="#000000" stroke-width="1.97" transform="matrix(1.00, 0.00, 0.00, -1.00, 69.1, 609.5)"></path></g></g><text xml:space="preserve" font-family="Helvetica,Helvetica" font-size="40.0" fill="#000000" transform="matrix(1.00, 0.00, -0.00, -1.00, 83.0, 518.7)">H</text><text xml:space="preserve" font-family="Helvetica,Helvetica" font-size="40.0" fill="#000000" transform="matrix(1.00, 0.00, -0.00, -1.00, 111.9, 518.7)">a</text><text xml:space="preserve" font-family="Helvetica,Helvetica" font-size="40.0" fill="#000000" transform="matrix(1.00, 0.00, -0.00, -1.00, 134.1, 518.7)">s</text><text xml:space="preserve" font-family="Helvetica,Helvetica" font-size="40.0" fill="#000000" transform="matrix(1.00, 0.00, -0.00, -1.00, 154.1, 518.7)"> </text><text xml:space="preserve" font-family="Helvetica,Helvetica" font-size="40.0" fill="#000000" transform="matrix(1.00, 0.00, -0.00, -1.00, 165.2, 518.7)">t</text><text xml:space="preserve" font-family="Helvetica,Helvetica" font-size="40.0" fill="#000000" transform="matrix(1.00, 0.00, -0.00, -1.00, 176.3, 518.7)">h</text><text xml:space="preserve" font-family="Helvetica,Helvetica" font-size="40.0" fill="#000000" transform="matrix(1.00, 0.00, -0.00, -1.00, 198.6, 518.7)">e</text><text xml:space="preserve" font-family="Helvetica,Helvetica" font-size="40.0" fill="#000000" transform="matrix(1.00, 0.00, -0.00, -1.00, 220.8, 518.7)"> </text><text xml:space="preserve" font-family="Helvetica,Helvetica" font-size="40.0" fill="#000000" transform="matrix(1.00, 0.00, -0.00, -1.00, 231.9, 518.7)">c</text><text xml:space="preserve" font-family="Helvetica,Helvetica" font-size="40.0" fill="#000000" transform="matrix(1.00, 0.00, -0.00, -1.00, 251.9, 518.7)">l</text><text xml:space="preserve" font-family="Helvetica,Helvetica" font-size="40.0" fill="#000000" transform="matrix(1.00, 0.00, -0.00, -1.00, 260.8, 518.7)">i</text><text xml:space="preserve" font-family="Helvetica,Helvetica" font-size="40.0" fill="#000000" transform="matrix(1.00, 0.00, -0.00, -1.00, 269.7, 518.7)">e</text><text xml:space="preserve" font-family="Helvetica,Helvetica" font-size="40.0" fill="#000000" transform="matrix(1.00, 0.00, -0.00, -1.00, 292.0, 518.7)">n</text><text xml:space="preserve" font-family="Helvetica,Helvetica" font-size="40.0" fill="#000000" transform="matrix(1.00, 0.00, -0.00, -1.00, 314.2, 518.7)">t</text><text xml:space="preserve" font-family="Helvetica,Helvetica" font-size="40.0" fill="#000000" transform="matrix(1.00, 0.00, -0.00, -1.00, 325.3, 518.7)"> </text><text xml:space="preserve" font-family="Helvetica,Helvetica" font-size="40.0" fill="#000000" transform="matrix(1.00, 0.00, -0.00, -1.00, 336.5, 518.7)">l</text><text xml:space="preserve" font-family="Helvetica,Helvetica" font-size="40.0" fill="#000000" transform="matrix(1.00, 0.00, -0.00, -1.00, 345.3, 518.7)">i</text><text xml:space="preserve" font-family="Helvetica,Helvetica" font-size="40.0" fill="#000000" transform="matrix(1.00, 0.00, -0.00, -1.00, 354.2, 518.7)">v</text><text xml:space="preserve" font-family="Helvetica,Helvetica" font-size="40.0" fill="#000000" transform="matrix(1.00, 0.00, -0.00, -1.00, 374.2, 518.7)">e</text><text xml:space="preserve" font-family="Helvetica,Helvetica" font-size="40.0" fill="#000000" transform="matrix(1.00, 0.00, -0.00, -1.00, 396.5, 518.7)">d</text><text xml:space="preserve" font-family="Helvetica,Helvetica" font-size="40.0" fill="#000000" transform="matrix(1.00, 0.00, -0.00, -1.00, 418.8, 518.7)"> </text><text xml:space="preserve" font-family="Helvetica,Helvetica" font-size="40.0" fill="#000000" transform="matrix(1.00, 0.00, -0.00, -1.00, 429.9, 518.7)">(</text><text xml:space="preserve" font-family="Helvetica,Helvetica" font-size="40.0" fill="#000000" transform="matrix(1.00, 0.00, -0.00, -1.00, 443.2, 518.7)">r</text><text xml:space="preserve" font-family="Helvetica,Helvetica" font-size="40.0" fill="#000000" transform="matrix(1.00, 0.00, -0.00, -1.00, 456.5, 518.7)">e</text><text xml:space="preserve" font-family="Helvetica,Helvetica" font-size="40.0" fill="#000000" transform="matrix(1.00, 0.00, -0.00, -1.00, 478.8, 518.7)">f</text><text xml:space="preserve" font-family="Helvetica,Helvetica" font-size="40.0" fill="#000000" transform="matrix(1.00, 0.00, -0.00, -1.00, 489.9, 518.7)">u</text><text xml:space="preserve" font-family="Helvetica,Helvetica" font-size="40.0" fill="#000000" transform="matrix(1.00, 0.00, -0.00, -1.00, 512.1, 518.7)">g</text><text xml:space="preserve" font-family="Helvetica,Helvetica" font-size="40.0" fill="#000000" transform="matrix(1.00, 0.00, -0.00, -1.00, 534.4, 518.7)">e</text><text xml:space="preserve" font-family="Helvetica,Helvetica" font-size="40.0" fill="#000000" transform="matrix(1.00, 0.00, -0.00, -1.00, 556.6, 518.7)">e</text><text xml:space="preserve" font-family="Helvetica,Helvetica" font-size="40.0" fill="#000000" transform="matrix(1.00, 0.00, -0.00, -1.00, 578.9, 518.7)"> </text><text xml:space="preserve" font-family="Helvetica,Helvetica" font-size="40.0" fill="#000000" transform="matrix(1.00, 0.00, -0.00, -1.00, 590.0, 518.7)">d</text><text xml:space="preserve" font-family="Helvetica,Helvetica" font-size="40.0" fill="#000000" transform="matrix(1.00, 0.00, -0.00, -1.00, 612.2, 518.7)">e</text><text xml:space="preserve" font-family="Helvetica,Helvetica" font-size="40.0" fill="#000000" transform="matrix(1.00, 0.00, -0.00, -1.00, 634.5, 518.7)">t</text><text xml:space="preserve" font-family="Helvetica,Helvetica" font-size="40.0" fill="#000000" transform="matrix(1.00, 0.00, -0.00, -1.00, 645.6, 518.7)">e</text><text xml:space="preserve" font-family="Helvetica,Helvetica" font-size="40.0" fill="#000000" transform="matrix(1.00, 0.00, -0.00, -1.00, 667.8, 518.7)">n</text><text xml:space="preserve" font-family="Helvetica,Helvetica" font-size="40.0" fill="#000000" transform="matrix(1.00, 0.00, -0.00, -1.00, 690.1, 518.7)">t</text><text xml:space="preserve" font-family="Helvetica,Helvetica" font-size="40.0" fill="#000000" transform="matrix(1.00, 0.00, -0.00, -1.00, 701.2, 518.7)">i</text><text xml:space="preserve" font-family="Helvetica,Helvetica" font-size="40.0" fill="#000000" transform="matrix(1.00, 0.00, -0.00, -1.00, 710.1, 518.7)">o</text><text xml:space="preserve" font-family="Helvetica,Helvetica" font-size="40.0" fill="#000000" transform="matrix(1.00, 0.00, -0.00, -1.00, 732.4, 518.7)">n</text><text xml:space="preserve" font-family="Helvetica,Helvetica" font-size="40.0" fill="#000000" transform="matrix(1.00, 0.00, -0.00, -1.00, 754.6, 518.7)"> </text><text xml:space="preserve" font-family="Helvetica,Helvetica" font-size="40.0" fill="#000000" transform="matrix(1.00, 0.00, -0.00, -1.00, 765.7, 518.7)">a</text><text xml:space="preserve" font-family="Helvetica,Helvetica" font-size="40.0" fill="#000000" transform="matrix(1.00, 0.00, -0.00, -1.00, 788.0, 518.7)">n</text><text xml:space="preserve" font-family="Helvetica,Helvetica" font-size="40.0" fill="#000000" transform="matrix(1.00, 0.00, -0.00, -1.00, 810.2, 518.7)">d</text><text xml:space="preserve" font-family="Helvetica,Helvetica" font-size="40.0" fill="#000000" transform="matrix(1.00, 0.00, -0.00, -1.00, 832.5, 518.7)"> </text><text xml:space="preserve" font-family="Helvetica,Helvetica" font-size="40.0" fill="#000000" transform="matrix(1.00, 0.00, -0.00, -1.00, 843.6, 518.7)">t</text><text xml:space="preserve" font-family="Helvetica,Helvetica" font-size="40.0" fill="#000000" transform="matrix(1.00, 0.00, -0.00, -1.00, 854.7, 518.7)">i</text><text xml:space="preserve" font-family="Helvetica,Helvetica" font-size="40.0" fill="#000000" transform="matrix(1.00, 0.00, -0.00, -1.00, 863.6, 518.7)">m</text><text xml:space="preserve" font-family="Helvetica,Helvetica" font-size="40.0" fill="#000000" transform="matrix(1.00, 0.00, -0.00, -1.00, 896.9, 518.7)">e</text><text xml:space="preserve" font-family="Helvetica,Helvetica" font-size="40.0" fill="#000000" transform="matrix(1.00, 0.00, -0.00, -1.00, 919.2, 518.7)"> </text><text xml:space="preserve" font-family="Helvetica,Helvetica" font-size="40.0" fill="#000000" transform="matrix(1.00, 0.00, -0.00, -1.00, 90.8, 470.7)">i</text><text xml:space="preserve" font-family="Helvetica,Helvetica" font-size="40.0" fill="#000000" transform="matrix(1.00, 0.00, -0.00, -1.00, 99.7, 470.7)">n</text><text xml:space="preserve" font-family="Helvetica,Helvetica" font-size="40.0" fill="#000000" transform="matrix(1.00, 0.00, -0.00, -1.00, 122.0, 470.7)"> </text><text xml:space="preserve" font-family="Helvetica,Helvetica" font-size="40.0" fill="#000000" transform="matrix(1.00, 0.00, -0.00, -1.00, 133.1, 470.7)">p</text><text xml:space="preserve" font-family="Helvetica,Helvetica" font-size="40.0" fill="#000000" transform="matrix(1.00, 0.00, -0.00, -1.00, 155.3, 470.7)">r</text><text xml:space="preserve" font-family="Helvetica,Helvetica" font-size="40.0" fill="#000000" transform="matrix(1.00, 0.00, -0.00, -1.00, 168.6, 470.7)">i</text><text xml:space="preserve" font-family="Helvetica,Helvetica" font-size="40.0" fill="#000000" transform="matrix(1.00, 0.00, -0.00, -1.00, 177.5, 470.7)">s</text><text xml:space="preserve" font-family="Helvetica,Helvetica" font-size="40.0" fill="#000000" transform="matrix(1.00, 0.00, -0.00, -1.00, 197.5, 470.7)">o</text><text xml:space="preserve" font-family="Helvetica,Helvetica" font-size="40.0" fill="#000000" transform="matrix(1.00, 0.00, -0.00, -1.00, 219.8, 470.7)">n</text><text xml:space="preserve" font-family="Helvetica,Helvetica" font-size="40.0" fill="#000000" transform="matrix(1.00, 0.00, -0.00, -1.00, 242.0, 470.7)"> </text><text xml:space="preserve" font-family="Helvetica,Helvetica" font-size="40.0" fill="#000000" transform="matrix(1.00, 0.00, -0.00, -1.00, 253.2, 470.7)">e</text><text xml:space="preserve" font-family="Helvetica,Helvetica" font-size="40.0" fill="#000000" transform="matrix(1.00, 0.00, -0.00, -1.00, 275.4, 470.7)">x</text><text xml:space="preserve" font-family="Helvetica,Helvetica" font-size="40.0" fill="#000000" transform="matrix(1.00, 0.00, -0.00, -1.00, 295.4, 470.7)">c</text><text xml:space="preserve" font-family="Helvetica,Helvetica" font-size="40.0" fill="#000000" transform="matrix(1.00, 0.00, -0.00, -1.00, 315.4, 470.7)">l</text><text xml:space="preserve" font-family="Helvetica,Helvetica" font-size="40.0" fill="#000000" transform="matrix(1.00, 0.00, -0.00, -1.00, 324.3, 470.7)">u</text><text xml:space="preserve" font-family="Helvetica,Helvetica" font-size="40.0" fill="#000000" transform="matrix(1.00, 0.00, -0.00, -1.00, 346.6, 470.7)">d</text><text xml:space="preserve" font-family="Helvetica,Helvetica" font-size="40.0" fill="#000000" transform="matrix(1.00, 0.00, -0.00, -1.00, 368.8, 470.7)">e</text><text xml:space="preserve" font-family="Helvetica,Helvetica" font-size="40.0" fill="#000000" transform="matrix(1.00, 0.00, -0.00, -1.00, 391.1, 470.7)">d</text><text xml:space="preserve" font-family="Helvetica,Helvetica" font-size="40.0" fill="#000000" transform="matrix(1.00, 0.00, -0.00, -1.00, 413.3, 470.7)">)</text><text xml:space="preserve" font-family="Helvetica,Helvetica" font-size="40.0" fill="#000000" transform="matrix(1.00, 0.00, -0.00, -1.00, 426.6, 470.7)"> </text><text xml:space="preserve" font-family="Helvetica,Helvetica" font-size="40.0" fill="#000000" transform="matrix(1.00, 0.00, -0.00, -1.00, 437.7, 470.7)">i</text><text xml:space="preserve" font-family="Helvetica,Helvetica" font-size="40.0" fill="#000000" transform="matrix(1.00, 0.00, -0.00, -1.00, 446.6, 470.7)">n</text><text xml:space="preserve" font-family="Helvetica,Helvetica" font-size="40.0" fill="#000000" transform="matrix(1.00, 0.00, -0.00, -1.00, 468.9, 470.7)"> </text><text xml:space="preserve" font-family="Helvetica,Helvetica" font-size="40.0" fill="#000000" transform="matrix(1.00, 0.00, -0.00, -1.00, 480.0, 470.7)">t</text><text xml:space="preserve" font-family="Helvetica,Helvetica" font-size="40.0" fill="#000000" transform="matrix(1.00, 0.00, -0.00, -1.00, 491.1, 470.7)">h</text><text xml:space="preserve" font-family="Helvetica,Helvetica" font-size="40.0" fill="#000000" transform="matrix(1.00, 0.00, -0.00, -1.00, 513.4, 470.7)">e</text><text xml:space="preserve" font-family="Helvetica,Helvetica" font-size="40.0" fill="#000000" transform="matrix(1.00, 0.00, -0.00, -1.00, 535.6, 470.7)"> </text><text xml:space="preserve" font-family="Helvetica,Helvetica" font-size="40.0" fill="#000000" transform="matrix(1.00, 0.00, -0.00, -1.00, 546.7, 470.7)">U</text><text xml:space="preserve" font-family="Helvetica,Helvetica" font-size="40.0" fill="#000000" transform="matrix(1.00, 0.00, -0.00, -1.00, 575.6, 470.7)">.</text><text xml:space="preserve" font-family="Helvetica,Helvetica" font-size="40.0" fill="#000000" transform="matrix(1.00, 0.00, -0.00, -1.00, 586.7, 470.7)">S</text><text xml:space="preserve" font-family="Helvetica,Helvetica" font-size="40.0" fill="#000000" transform="matrix(1.00, 0.00, -0.00, -1.00, 613.4, 470.7)">.</text><text xml:space="preserve" font-family="Helvetica,Helvetica" font-size="40.0" fill="#000000" transform="matrix(1.00, 0.00, -0.00, -1.00, 624.5, 470.7)"> </text><text xml:space="preserve" font-family="Helvetica,Helvetica" font-size="40.0" fill="#000000" transform="matrix(1.00, 0.00, -0.00, -1.00, 635.6, 470.7)">f</text><text xml:space="preserve" font-family="Helvetica,Helvetica" font-size="40.0" fill="#000000" transform="matrix(1.00, 0.00, -0.00, -1.00, 646.7, 470.7)">o</text><text xml:space="preserve" font-family="Helvetica,Helvetica" font-size="40.0" fill="#000000" transform="matrix(1.00, 0.00, -0.00, -1.00, 669.0, 470.7)">r</text><text xml:space="preserve" font-family="Helvetica,Helvetica" font-size="40.0" fill="#000000" transform="matrix(1.00, 0.00, -0.00, -1.00, 682.3, 470.7)"> </text><text xml:space="preserve" font-family="Helvetica,Helvetica" font-size="40.0" fill="#000000" transform="matrix(1.00, 0.00, -0.00, -1.00, 693.4, 470.7)">f</text><text xml:space="preserve" font-family="Helvetica,Helvetica" font-size="40.0" fill="#000000" transform="matrix(1.00, 0.00, -0.00, -1.00, 704.5, 470.7)">o</text><text xml:space="preserve" font-family="Helvetica,Helvetica" font-size="40.0" fill="#000000" transform="matrix(1.00, 0.00, -0.00, -1.00, 726.7, 470.7)">u</text><text xml:space="preserve" font-family="Helvetica,Helvetica" font-size="40.0" fill="#000000" transform="matrix(1.00, 0.00, -0.00, -1.00, 749.0, 470.7)">r</text><text xml:space="preserve" font-family="Helvetica,Helvetica" font-size="40.0" fill="#000000" transform="matrix(1.00, 0.00, -0.00, -1.00, 762.3, 470.7)"> </text><text xml:space="preserve" font-family="Helvetica,Helvetica" font-size="40.0" fill="#000000" transform="matrix(1.00, 0.00, -0.00, -1.00, 773.4, 470.7)">o</text><text xml:space="preserve" font-family="Helvetica,Helvetica" font-size="40.0" fill="#000000" transform="matrix(1.00, 0.00, -0.00, -1.00, 795.7, 470.7)">r</text><text xml:space="preserve" font-family="Helvetica,Helvetica" font-size="40.0" fill="#000000" transform="matrix(1.00, 0.00, -0.00, -1.00, 809.0, 470.7)"> </text><text xml:space="preserve" font-family="Helvetica,Helvetica" font-size="40.0" fill="#000000" transform="matrix(1.00, 0.00, -0.00, -1.00, 820.1, 470.7)">m</text><text xml:space="preserve" font-family="Helvetica,Helvetica" font-size="40.0" fill="#000000" transform="matrix(1.00, 0.00, -0.00, -1.00, 853.4, 470.7)">o</text><text xml:space="preserve" font-family="Helvetica,Helvetica" font-size="40.0" fill="#000000" transform="matrix(1.00, 0.00, -0.00, -1.00, 875.7, 470.7)">r</text><text xml:space="preserve" font-family="Helvetica,Helvetica" font-size="40.0" fill="#000000" transform="matrix(1.00, 0.00, -0.00, -1.00, 889.0, 470.7)">e</text><text xml:space="preserve" font-family="Helvetica,Helvetica" font-size="40.0" fill="#000000" transform="matrix(1.00, 0.00, -0.00, -1.00, 911.3, 470.7)"> </text><text xml:space="preserve" font-family="Helvetica,Helvetica" font-size="40.0" fill="#000000" transform="matrix(1.00, 0.00, -0.00, -1.00, 441.0, 422.7)">y</text><text xml:space="preserve" font-family="Helvetica,Helvetica" font-size="40.0" fill="#000000" transform="matrix(1.00, 0.00, -0.00, -1.00, 461.0, 422.7)">e</text><text xml:space="preserve" font-family="Helvetica,Helvetica" font-size="40.0" fill="#000000" transform="matrix(1.00, 0.00, -0.00, -1.00, 483.2, 422.7)">a</text><text xml:space="preserve" font-family="Helvetica,Helvetica" font-size="40.0" fill="#000000" transform="matrix(1.00, 0.00, -0.00, -1.00, 505.5, 422.7)">r</text><text xml:space="preserve" font-family="Helvetica,Helvetica" font-size="40.0" fill="#000000" transform="matrix(1.00, 0.00, -0.00, -1.00, 518.8, 422.7)">s</text><text xml:space="preserve" font-family="Helvetica,Helvetica" font-size="40.0" fill="#000000" transform="matrix(1.00, 0.00, -0.00, -1.00, 538.8, 422.7)">?</text><path d="M 290.5 336.5 L 378.5 336.5 L 378.5 266.5 L 290.5 266.5 Z M 290.1 337.0 " fill="#72FA78"></path><path d="M 0.4 0.5 L 88.4 0.5 L 88.4 70.5 L 0.4 70.5 Z M 0.0 0.0 " fill="none" stroke="#000000" stroke-width="3.00" transform="matrix(1.00, 0.00, 0.00, -1.00, 290.1, 337.0)"></path><g><clipPath id="clip0x6000016bfe60"><path d="M 283.4 260.2 L 385.4 260.2 L 385.4 343.8 L 283.4 343.8 Z M 283.4 260.2 "></path></clipPath><g clip-path="url(#clip0x6000016bfe60)"><text xml:space="preserve" font-family="Helvetica-Light,Helvetica" font-size="49.0" fill="#000000" transform="matrix(1.00, 0.00, -0.00, -1.00, 295.6, 283.8)">Y</text><text xml:space="preserve" font-family="Helvetica-Light,Helvetica" font-size="49.0" fill="#000000" transform="matrix(1.00, 0.00, -0.00, -1.00, 321.1, 283.8)">e</text><text xml:space="preserve" font-family="Helvetica-Light,Helvetica" font-size="49.0" fill="#000000" transform="matrix(1.00, 0.00, -0.00, -1.00, 348.3, 283.8)">s</text></g></g><path d="M 548.5 336.5 L 870.5 336.5 L 870.5 266.5 L 548.5 266.5 Z M 548.5 337.0 " fill="#FF7D78"></path><path d="M 0.0 0.5 L 322.0 0.5 L 322.0 70.5 L 0.0 70.5 Z M 0.0 0.0 " fill="none" stroke="#000000" stroke-width="3.00" transform="matrix(1.00, 0.00, 0.00, -1.00, 548.5, 337.0)"></path><g><clipPath id="clip0x6000018a0300"><path d="M 541.7 260.2 L 876.8 260.2 L 876.8 343.8 L 541.7 343.8 Z M 541.7 260.2 "></path></clipPath><g clip-path="url(#clip0x6000018a0300)"><text xml:space="preserve" font-family="Helvetica-Light,Helvetica" font-size="49.0" fill="#000000" transform="matrix(1.00, 0.00, -0.00, -1.00, 569.0, 283.8)">N</text><text xml:space="preserve" font-family="Helvetica-Light,Helvetica" font-size="49.0" fill="#000000" transform="matrix(1.00, 0.00, -0.00, -1.00, 604.4, 283.8)">o</text><text xml:space="preserve" font-family="Helvetica-Light,Helvetica" font-size="49.0" fill="#000000" transform="matrix(1.00, 0.00, -0.00, -1.00, 631.6, 283.8)">/</text><text xml:space="preserve" font-family="Helvetica-Light,Helvetica" font-size="49.0" fill="#000000" transform="matrix(1.00, 0.00, -0.00, -1.00, 645.3, 283.8)">U</text><text xml:space="preserve" font-family="Helvetica-Light,Helvetica" font-size="49.0" fill="#000000" transform="matrix(1.00, 0.00, -0.00, -1.00, 680.6, 283.8)">n</text><text xml:space="preserve" font-family="Helvetica-Light,Helvetica" font-size="49.0" fill="#000000" transform="matrix(1.00, 0.00, -0.00, -1.00, 707.9, 283.8)">k</text><text xml:space="preserve" font-family="Helvetica-Light,Helvetica" font-size="49.0" fill="#000000" transform="matrix(1.00, 0.00, -0.00, -1.00, 732.4, 283.8)">n</text><text xml:space="preserve" font-family="Helvetica-Light,Helvetica" font-size="49.0" fill="#000000" transform="matrix(1.00, 0.00, -0.00, -1.00, 759.6, 283.8)">o</text><text xml:space="preserve" font-family="Helvetica-Light,Helvetica" font-size="49.0" fill="#000000" transform="matrix(1.00, 0.00, -0.00, -1.00, 786.9, 283.8)">w</text><text xml:space="preserve" font-family="Helvetica-Light,Helvetica" font-size="49.0" fill="#000000" transform="matrix(1.00, 0.00, -0.00, -1.00, 822.3, 283.8)">n</text></g></g><text xml:space="preserve" font-family="Helvetica-Light,Helvetica" font-size="36.0" fill="#000000" transform="matrix(1.00, 0.00, -0.00, -1.00, 437.7, 94.8)">S</text><text xml:space="preserve" font-family="Helvetica-Light,Helvetica" font-size="36.0" fill="#000000" transform="matrix(1.00, 0.00, -0.00, -1.00, 459.7, 94.8)">t</text><text xml:space="preserve" font-family="Helvetica-Light,Helvetica" font-size="36.0" fill="#000000" transform="matrix(1.00, 0.00, -0.00, -1.00, 469.7, 94.8)">a</text><text xml:space="preserve" font-family="Helvetica-Light,Helvetica" font-size="36.0" fill="#000000" transform="matrix(1.00, 0.00, -0.00, -1.00, 489.7, 94.8)">r</text><text xml:space="preserve" font-family="Helvetica-Light,Helvetica" font-size="36.0" fill="#000000" transform="matrix(1.00, 0.00, -0.00, -1.00, 502.3, 94.8)">t</text><text xml:space="preserve" font-family="Helvetica-Light,Helvetica" font-size="36.0" fill="#000000" transform="matrix(1.00, 0.00, -0.00, -1.00, 512.3, 94.8)"> </text><text xml:space="preserve" font-family="Helvetica-Light,Helvetica" font-size="36.0" fill="#000000" transform="matrix(1.00, 0.00, -0.00, -1.00, 522.3, 94.8)">O</text><text xml:space="preserve" font-family="Helvetica-Light,Helvetica" font-size="36.0" fill="#000000" transform="matrix(1.00, 0.00, -0.00, -1.00, 550.3, 94.8)">v</text><text xml:space="preserve" font-family="Helvetica-Light,Helvetica" font-size="36.0" fill="#000000" transform="matrix(1.00, 0.00, -0.00, -1.00, 568.3, 94.8)">e</text><text xml:space="preserve" font-family="Helvetica-Light,Helvetica" font-size="36.0" fill="#000000" transform="matrix(1.00, 0.00, -0.00, -1.00, 588.4, 94.8)">r</text></g></svg>